<?xml version="1.0" encoding="utf-8"?>
<!-- Generator: Adobe Illustrator 26.0.1, SVG Export Plug-In . SVG Version: 6.00 Build 0)  -->
<svg version="1.1" id="Calque_1" xmlns="http://www.w3.org/2000/svg" xmlns:xlink="http://www.w3.org/1999/xlink" x="0px" y="0px"
	 viewBox="0 0 188.97 195.72" style="enable-background:new 0 0 188.97 195.72;" xml:space="preserve">
<style type="text/css">
	.st0{fill-rule:evenodd;clip-rule:evenodd;fill:#FFFFFF;}
</style>
<g>
	<polygon class="st0" points="31.33,66.81 93.99,4.28 156.66,66.81 160.95,66.81 93.99,0 27.04,66.81 	"/>
	<polygon class="st0" points="156.01,129.57 94,191.44 31.98,129.57 27.7,129.57 94,195.72 160.3,129.57 	"/>
	<path class="st0" d="M67.82,57.67c0,3.16,2.27,5.6,5.55,5.6c2.74,0,4.22-1.74,4.22-1.74l-1.03-1.41c0,0-1.26,1.36-3.12,1.36
		c-2.24,0-3.62-1.8-3.62-3.84c0-2,1.33-3.69,3.6-3.69c1.71,0,2.94,1.14,2.94,1.14l0.94-1.45c0,0-1.35-1.47-3.97-1.47
		C70.18,52.16,67.82,54.56,67.82,57.67z"/>
	<path class="st0" d="M87.42,54.21c0,0,0.23,1.06,0.42,1.66l0.95,2.88h-2.82l0.95-2.88c0.21-0.61,0.45-1.66,0.45-1.66H87.42z
		 M90.19,63.09h2.01l-3.78-10.75h-2.04l-3.78,10.75h2.01l0.91-2.75h3.77L90.19,63.09z"/>
	<polygon class="st0" points="98.12,63.09 100.07,63.09 100.07,58.75 103.63,58.75 103.63,57.07 100.07,57.07 100.07,54.03 
		104.3,54.03 104.3,52.35 98.12,52.35 	"/>
	<path class="st0" d="M113.21,51.63h1.54l1.59-2.06h-1.98L113.21,51.63z M110.67,63.09h6.67v-1.68h-4.72v-2.89h3.62v-1.68h-3.62
		v-2.82h4.48v-1.68h-6.43V63.09z"/>
	<path class="st0" d="M77.14,140.36V136h1.05c1.29,0,2.15,0.76,2.15,2.17c0,1.42-0.85,2.19-2.15,2.19H77.14z M76.33,141.07h1.91
		c1.77,0,2.93-1.06,2.93-2.89c0-1.82-1.16-2.88-2.93-2.88h-1.91V141.07z"/>
	<polygon class="st0" points="84.01,141.07 87.5,141.07 87.5,140.36 84.82,140.36 84.82,138.51 86.89,138.51 86.89,137.81 
		84.82,137.81 84.82,136 87.36,136 87.36,135.3 84.01,135.3 	"/>
	<path class="st0" d="M91.14,138.23V136h1.18c0.69,0,1.11,0.41,1.11,1.1c0,0.69-0.43,1.13-1.12,1.13H91.14z M90.33,141.07h0.81
		v-2.13h1.3c1.05,0,1.81-0.74,1.81-1.83c0-1.1-0.76-1.81-1.81-1.81h-2.11V141.07z"/>
	<path class="st0" d="M96.84,139.02c0,1.28,0.92,2.14,2.27,2.14s2.27-0.86,2.27-2.14v-3.73h-0.81v3.71c0,0.9-0.58,1.41-1.47,1.41
		c-0.88,0-1.45-0.51-1.45-1.4v-3.73h-0.81V139.02z"/>
	<rect x="104.51" y="135.3" class="st0" width="0.81" height="5.77"/>
	<path class="st0" d="M108.08,140.41c0,0,0.69,0.76,1.91,0.76c1.14,0,1.83-0.74,1.83-1.63c0-1.87-2.8-1.55-2.8-2.75
		c0-0.46,0.43-0.84,1.05-0.84c0.74,0,1.27,0.5,1.27,0.5l0.37-0.67c0,0-0.56-0.58-1.63-0.58c-1.09,0-1.86,0.71-1.86,1.61
		c0,1.77,2.8,1.5,2.8,2.75c0,0.55-0.46,0.85-1,0.85c-0.86,0-1.47-0.62-1.47-0.62L108.08,140.41z"/>
	<path class="st0" d="M82.5,153.18h3.32v-0.7h-1.26v-5.07h-0.72l-1.38,1.34l0.49,0.51l0.54-0.53c0.21-0.2,0.28-0.34,0.28-0.34h0.02
		c0,0-0.01,0.18-0.01,0.36v3.73H82.5V153.18z"/>
	<path class="st0" d="M90.06,150.46c-0.74,0-1.19-0.51-1.19-1.22c0-0.67,0.39-1.19,1.06-1.19c0.74,0,1.3,0.84,1.3,1.59
		C91.24,150.06,90.71,150.46,90.06,150.46z M89.49,153.28c1.79,0,2.6-1.77,2.6-3.24c0-1.65-0.93-2.72-2.16-2.72
		c-1.08,0-1.86,0.79-1.86,1.93c0,1.07,0.73,1.9,1.82,1.9c0.51,0,1.04-0.21,1.27-0.54h0.02c-0.12,0.96-0.67,1.94-1.73,1.94
		c-0.46,0-0.83-0.2-0.83-0.2l-0.26,0.7C88.37,153.04,88.8,153.28,89.49,153.28z"/>
	<path class="st0" d="M95.75,148.84c0-0.44,0.35-0.8,0.99-0.8c0.6,0,1.03,0.34,1.03,0.87c0,0.6-0.42,1.05-0.51,1.14
		C96.52,149.72,95.75,149.48,95.75,148.84z M97.83,151.56c0,0.6-0.54,0.99-1.14,0.99c-0.61,0-1.19-0.42-1.19-1.09
		c0-0.62,0.51-1.01,0.69-1.14C96.97,150.7,97.83,150.94,97.83,151.56z M94.67,151.51c0,1.05,0.86,1.77,2.01,1.77
		c1.2,0,1.98-0.79,1.98-1.69c0-0.6-0.34-0.96-0.78-1.23c0.07-0.08,0.69-0.74,0.69-1.5c0-0.95-0.74-1.54-1.81-1.54
		c-1.22,0-1.8,0.74-1.8,1.51c0,0.53,0.27,0.88,0.65,1.15C95.44,150.08,94.67,150.63,94.67,151.51z"/>
	<path class="st0" d="M103.19,150.46c-0.74,0-1.19-0.51-1.19-1.22c0-0.67,0.39-1.19,1.06-1.19c0.74,0,1.3,0.84,1.3,1.59
		C104.36,150.06,103.84,150.46,103.19,150.46z M102.62,153.28c1.79,0,2.6-1.77,2.6-3.24c0-1.65-0.93-2.72-2.16-2.72
		c-1.08,0-1.86,0.79-1.86,1.93c0,1.07,0.73,1.9,1.82,1.9c0.51,0,1.04-0.21,1.27-0.54h0.02c-0.12,0.96-0.67,1.94-1.73,1.94
		c-0.46,0-0.83-0.2-0.83-0.2l-0.26,0.7C101.5,153.04,101.93,153.28,102.62,153.28z"/>
	<path class="st0" d="M25.25,76.66h-1.09c-0.12,1.39-0.42,2.54-1.33,2.54c-1.39,0-3.08-3.38-7.61-3.38C5.98,75.81,0,86.2,0,97.92
		s5.98,22.11,15.22,22.11c4.23,0,6.65-3.02,7.97-3.02c1.03,0,1.39,1.21,1.39,2.17h1.09v-12.32h-1.09
		c-0.48,6.1-3.75,12.08-9.36,12.08c-4.35,0-5.07-5.07-5.07-9V87.89c0-6.77,0.97-10.99,5.38-10.99c5.38,0,8.03,7.07,8.64,12.08h1.09
		V76.66z"/>
	<path class="st0" d="M51.65,112.06c0,4.59-1.63,6.89-5.07,6.89c-3.44,0-5.07-2.3-5.07-6.89V83.79c0-4.59,1.63-6.89,5.07-6.89
		c3.44,0,5.07,2.3,5.07,6.89V112.06z M31.35,97.92c0,11.72,5.98,22.11,15.22,22.11c9.24,0,15.22-10.39,15.22-22.11
		s-5.98-22.11-15.22-22.11C37.33,75.81,31.35,86.2,31.35,97.92z"/>
	<path class="st0" d="M86.33,113.33c0,3.02-0.6,5.62-4.41,5.62c-2.78,0-4.65-2.11-4.65-6.1V86.2c0-4.77,0.79-9.3,6.46-9.3
		s8.82,6.83,9.36,12.08h1.09V76.66h-1.09c0,0.91-0.36,2.54-1.63,2.54c-1.75,0-3.02-3.38-8.16-3.38c-10.21,0-16.19,10.39-16.19,22.11
		c0,13.05,5.98,22.11,15.22,22.11c5.62,0,10.33-3.75,12.69-6.34v-10.21h2.72v-1.09H83.37v1.09h2.96V113.33z"/>
	<path class="st0" d="M100.52,119.19h8.1v-1.09c-1.93,0-3.44-0.42-3.44-2.48v-32.8h0.12l19.15,37.21h2.54V80.1
		c0-1.69,0.72-2.36,3.2-2.36v-1.09h-8.28v1.09c2.66,0,3.62,0.79,3.62,2.36v22.35h-0.12l-13.35-25.8h-11.54v1.09
		c2.05,0,3.2,0.36,3.2,2.11v35.76c0,2.05-1.39,2.48-3.2,2.48V119.19z"/>
	<path class="st0" d="M146.07,105.29h-8.16l3.93-14.92h0.12L146.07,105.29z M130.25,119.19h8.03v-1.09c-0.85,0-3.2-0.06-3.2-1.39
		c0-0.54,0.48-2.42,1.15-4.77l1.45-5.56h8.7l3.08,11.72h-2.9v1.09h14.68v-1.09h-2.66l-11.12-41.44h-2.9l-10.75,38.9
		c-0.48,1.81-1.51,2.54-3.56,2.54V119.19z"/>
	<path class="st0" d="M188.54,76.66h-1.09c-0.12,1.39-0.42,2.54-1.33,2.54c-1.39,0-3.08-3.38-7.61-3.38
		c-9.24,0-15.22,10.39-15.22,22.11s5.98,22.11,15.22,22.11c4.23,0,6.65-3.02,7.97-3.02c1.03,0,1.39,1.21,1.39,2.17h1.09v-12.32
		h-1.09c-0.48,6.1-3.75,12.08-9.36,12.08c-4.35,0-5.07-5.07-5.07-9V87.89c0-6.77,0.97-10.99,5.38-10.99c5.38,0,8.03,7.07,8.64,12.08
		h1.09V76.66z"/>
	<polygon class="st0" points="39.26,66.81 94.09,12 148.92,66.81 149.35,66.81 94.2,11.68 94.09,11.57 38.83,66.81 	"/>
	<polygon class="st0" points="148.08,129.57 94.04,183.59 40,129.57 39.57,129.57 93.93,183.91 94.04,184.01 148.5,129.57 	"/>
</g>
</svg>
