<?xml version="1.0" encoding="UTF-8" standalone="no"?>
<!-- Created with Inkscape (http://www.inkscape.org/) -->

<svg
   xmlns:dc="http://purl.org/dc/elements/1.1/"
   xmlns:cc="http://creativecommons.org/ns#"
   xmlns:rdf="http://www.w3.org/1999/02/22-rdf-syntax-ns#"
   xmlns:svg="http://www.w3.org/2000/svg"
   xmlns="http://www.w3.org/2000/svg"
   xmlns:sodipodi="http://sodipodi.sourceforge.net/DTD/sodipodi-0.dtd"
   xmlns:inkscape="http://www.inkscape.org/namespaces/inkscape"
   width="223.61725mm"
   height="132.04303mm"
   viewBox="0 0 223.61725 132.04303"
   version="1.1"
   id="svg8469"
   inkscape:version="0.92.4 (5da689c313, 2019-01-14)"
   sodipodi:docname="pelemele.svg">
  <defs
     id="defs8463" />
  <sodipodi:namedview
     id="base"
     pagecolor="#ffffff"
     bordercolor="#666666"
     borderopacity="1.0"
     inkscape:pageopacity="0.0"
     inkscape:pageshadow="2"
     inkscape:zoom="0.98994949"
     inkscape:cx="625.47163"
     inkscape:cy="299.48943"
     inkscape:document-units="mm"
     inkscape:current-layer="layer1"
     showgrid="false"
     inkscape:window-width="1933"
     inkscape:window-height="1205"
     inkscape:window-x="414"
     inkscape:window-y="79"
     inkscape:window-maximized="0" />
  <metadata
     id="metadata8466">
    <rdf:RDF>
      <cc:Work
         rdf:about="">
        <dc:format>image/svg+xml</dc:format>
        <dc:type
           rdf:resource="http://purl.org/dc/dcmitype/StillImage" />
        <dc:title></dc:title>
      </cc:Work>
    </rdf:RDF>
  </metadata>
  <g
     inkscape:label="Layer 1"
     inkscape:groupmode="layer"
     id="layer1"
     transform="translate(12.832297,-115.17128)">
    <path
       style="fill:#000000;stroke-width:0.26458332"
       d="M 91.14895,246.77467 C 91.14895,246.51904 91.25812,245.92924 91.39156,245.46399 91.71297,244.34327 91.28162,242.3252 89.12105,234.84155 87.639,229.70811 84.9588,219.96789 83.94259,216.02232 83.72641,215.18298 83.18721,214.35204 82.10125,213.18473 79.62739,210.52551 80.07966,209.46007 83.87291,209.01112 86.02536,208.75636 87.02843,208.2933 88.16123,207.03143 89.24346,205.82589 89.59571,205.74485 90.53659,206.48495 L 91.19832,207.00546 92.82728,206.18304 C 93.72321,205.7307 94.79773,205.26262 95.2151,205.14286 96.31461,204.82736 97.54722,205.43888 98.45274,206.74911 100.49215,209.69999 101.62494,210.82116 104.99076,213.21997 106.90938,214.58737 109.0049,216.24754 109.64747,216.90924 110.29004,217.57093 110.92185,218.04677 111.05149,217.96664 111.30993,217.80692 112.18821,215.90862 113.05451,213.63735 113.93319,211.33362 116.80883,201.64453 116.81189,200.97734 116.8128,200.78105 117.00485,200.21727 117.23869,199.7245 117.64183,198.87495 117.87127,198.76118 121.67046,197.52706 126.33426,196.01209 128.68812,195.50565 129.10276,195.928 129.51974,196.35273 128.22097,197.35881 126.55321,197.90299 125.78029,198.15519 124.99908,198.47942 124.81718,198.6235 124.36685,198.98021 124.40119,200.78221 124.89168,202.53333 125.11456,203.32903 125.41548,204.92559 125.5604,206.08124 126.33694,212.27356 129.82561,223.54851 132.79366,229.45825 134.04873,231.95726 134.58311,232.50141 136.48442,233.21652 137.06478,233.4348 137.58744,233.75713 137.64589,233.93281 137.79532,234.3819 135.66637,236.44022 134.46286,237.01026 132.68,237.85469 132.16776,237.743 131.27517,236.3152 130.55484,235.16295 130.46822,234.77509 130.31826,232.03033 130.16197,229.16961 130.10857,228.94999 129.29324,227.81467 128.66182,226.93543 128.33356,226.06973 128.05871,224.55893 127.26385,220.18971 123.83026,207.55193 123.43804,207.55193 123.34415,207.55193 122.89597,207.93889 122.44208,208.41183 121.34477,209.5552 120.67636,211.67492 120.00173,216.15089 119.69466,218.18818 119.19335,220.65546 118.88769,221.63373 118.27632,223.59041 116.8287,225.5436 115.98986,225.5436 115.22167,225.5436 114.30667,224.85358 113.54139,223.69717 112.65333,222.35522 111.51144,221.31027 110.93307,221.31027 110.63323,221.31027 110.18604,220.74547 109.65858,219.70056 109.21166,218.81523 108.3707,217.57522 107.78977,216.94499 106.25975,215.28511 98.78303,210.18199 98.61587,210.68348 98.57319,210.81151 99.38846,213.28469 100.42759,216.17942 106.25204,232.40483 107.62741,237.07567 107.49746,240.18928 107.42956,241.81614 107.34203,242.08413 106.72952,242.54033 106.33256,242.83598 105.35089,243.13627 104.42401,243.24555 103.5362,243.35023 102.59713,243.62698 102.33719,243.86054 102.07725,244.09411 101.09067,244.42355 100.14478,244.59264 99.1989,244.76174 97.07539,245.42644 95.42588,246.06976 92.14576,247.34903 91.14895,247.51332 91.14895,246.77467 Z M 29.501036,246.47654 C 29.501036,246.31405 29.679629,246.1811 29.897911,246.1811 30.116192,246.1811 30.294786,246.09351 30.294786,245.98646 30.294786,245.8794 29.853834,243.79243 29.314891,241.34874 28.479905,237.56271 28.266487,236.91656 27.871708,236.97932 27.616898,237.01983 27.373241,236.93484 27.330248,236.79046 27.231122,236.45758 33.246983,235.1082 35.777055,234.8958 L 37.687453,234.73543 38.621326,235.66931 C 39.675977,236.72396 39.830684,237.73715 39.14078,239.07128 38.756653,239.8141 37.029445,240.86896 36.173266,240.88362 35.986693,240.88682 35.43179,241.0575 34.940149,241.26292 L 34.04626,241.63641 34.452043,243.2473 C 34.806172,244.65313 34.937876,244.85818 35.486723,244.85818 36.941383,244.85818 35.929074,245.35771 33.3889,245.89335 31.889204,246.20959 30.400923,246.53666 30.081608,246.62016 29.739878,246.70952 29.501036,246.65044 29.501036,246.47654 Z M 34.796602,240.48786 C 35.189985,240.01386 35.001257,237.82596 34.471313,236.71678 34.130127,236.00268 32.940619,235.54081 32.940619,236.12244 32.940619,236.42996 33.68804,239.97526 33.875871,240.5587 34.019296,241.00421 34.391858,240.97554 34.796602,240.48786 Z M 22.379968,243.95947 C 22.199631,243.74218 22.090988,243.28995 22.138539,242.95452 22.206045,242.47831 22.392645,242.34464 22.989907,242.34464 23.933014,242.34464 24.474302,243.05477 24.048703,243.7337 23.668833,244.33969 22.793771,244.45807 22.379968,243.95947 Z M 43.024355,242.57784 C 42.250748,241.88427 42.100187,241.47524 41.355898,238.04516 40.584982,234.49237 40.501805,234.27485 39.914199,234.27485 38.73683,234.27485 39.291481,233.78303 40.811973,233.47877 41.648718,233.31134 43.084855,233.00524 44.00339,232.79856 45.989594,232.35163 46.169785,232.34238 46.169785,232.68735 46.169785,232.83287 45.93166,232.95193 45.640619,232.95193 45.349577,232.95193 45.111452,233.12585 45.111452,233.3384 45.111452,234.13171 46.753173,241.03284 47.017727,241.3516 47.399971,241.81218 48.843635,241.76641 49.550496,241.27131 50.348736,240.7122 50.305948,239.18102 49.391953,235.59777 48.816733,233.34264 48.571255,232.77047 48.088015,232.55846 47.760593,232.41481 47.492702,232.2272 47.492702,232.14153 47.492702,232.05587 49.308405,231.59788 51.527598,231.12378 53.746791,230.64968 56.217337,230.08002 57.017702,229.85787 60.08896,229.0054 62.07673,229.47589 62.64829,231.19057 62.94312,232.07505 62.40952,233.00185 61.17051,233.75732 L 60.32499,234.27287 61.16767,234.27386 C 62.45497,234.27537 63.30062,234.70058 63.7519,235.57326 64.32339,236.6784 64.26523,237.28592 63.50098,238.19417 62.63822,239.21951 61.54535,239.63344 57.4019,240.50423 55.517099,240.90034 53.707103,241.282 53.379681,241.35236 53.041377,241.42506 52.784369,241.35274 52.784369,241.18486 52.784369,241.02237 52.97648,240.88943 53.211284,240.88943 53.745748,240.88943 53.628961,240.02739 52.440614,235.20089 51.71143,232.2393 51.520208,231.75884 51.064577,231.74358 50.206232,231.71483 49.609369,232.13485 49.609369,232.76763 49.609369,233.09259 49.905945,234.66598 50.26843,236.26405 51.091139,239.8911 51.091472,240.39507 50.271811,241.36917 49.418975,242.38272 47.824392,243.00908 45.628255,243.1932 43.971323,243.33211 43.827839,243.2982 43.024355,242.57784 Z M 59.39895,238.48375 C 59.39895,237.00472 58.84394,235.36064 58.28473,235.18315 57.41141,234.90597 57.284836,235.37512 57.70839,237.31929 58.28708,239.97551 58.24788,239.89935 58.86586,239.56862 59.21972,239.37924 59.39895,239.01449 59.39895,238.48375 Z M 58.29092,233.94541 C 58.33932,233.69147 58.18838,232.82826 57.9555,232.02718 57.58297,230.74571 57.44978,230.57068 56.847159,230.57068 56.266637,230.57068 56.186217,230.66142 56.319578,231.16599 56.406115,231.49342 56.618803,232.39202 56.792216,233.16289 57.059202,234.34972 57.19143,234.55242 57.65522,234.4858 57.95645,234.44254 58.24252,234.19936 58.29092,233.94541 Z M 142.84567,235.91595 141.49344,235.83725 141.32589,234.03446 C 141.09491,231.5492 140.34621,228.0581 138.92274,222.82891 138.25883,220.38994 137.71562,218.27901 137.71562,218.13793 137.71562,217.81892 139.34954,216.97356 140.75833,216.5637 141.34041,216.39436 142.95411,216.14994 144.34433,216.02055 145.90661,215.87516 147.87714,215.4589 149.50371,214.9307 151.45109,214.2983 152.64753,214.07064 154.10487,214.05515 L 156.07433,214.03422 156.40189,215.15426 C 156.58205,215.77029 156.64829,216.31997 156.5491,216.37579 156.4499,216.4316 155.29718,216.30904 153.98749,216.10342 151.14293,215.65684 149.17172,215.79517 147.3008,216.57269 146.02651,217.10227 145.9177,217.21653 145.9177,218.02523 145.9177,219.33515 146.44519,221.57496 147.0223,222.71558 147.44277,223.54661 147.65356,223.70953 148.22041,223.64163 148.78979,223.57342 148.97113,223.34272 149.27309,222.30245 149.47372,221.61123 149.74276,221.04568 149.87094,221.04568 150.5705,221.04568 152.53228,224.66113 152.53228,225.9504 152.53228,226.47283 152.34783,226.4429 150.8338,225.67478 149.25814,224.8754 147.66002,224.76886 147.87385,225.47745 147.9507,225.73211 148.3862,227.25016 148.84163,228.85089 149.29706,230.45162 149.74826,231.84468 149.84428,231.94658 150.07572,232.19218 154.79307,231.16081 155.96597,230.60818 156.53845,230.33844 157.1233,229.74691 157.50904,229.04748 158.16141,227.8646 158.94738,227.26252 159.54153,227.49051 159.88996,227.62422 160.41652,230.97673 160.13353,231.25971 160.0588,231.33444 158.7049,231.43059 157.12486,231.47337 153.77774,231.56398 151.77827,232.15915 150.48872,233.4487 149.83052,234.10691 149.44063,234.27485 148.57075,234.27485 147.53176,234.27485 146.25263,234.75009 145.38853,235.45716 144.81851,235.9236 144.36944,236.00462 142.84567,235.91595 Z M 67.24826,233.83388 C 67.15124,233.73686 67.07187,233.32241 67.07187,232.91288 67.07187,232.33826 67.22366,232.13017 67.73676,232.00138 68.87696,231.71521 69.66841,232.89539 68.87104,233.69277 68.52879,234.03501 67.53574,234.12136 67.24826,233.83388 Z M 162.32187,228.71719 C 162.32187,225.48057 160.24192,217.06899 158.70163,214.07649 158.23634,213.17251 158.40826,212.57902 159.1354,212.57902 159.42927,212.57902 160.77246,212.22692 162.12027,211.79659 165.12087,210.83854 166.81978,210.53733 166.81978,210.96337 166.81978,211.13061 166.51255,211.73171 166.13704,212.29914 165.47309,213.30244 165.46253,213.38518 165.7536,215.30537 166.03675,217.1733 166.76441,220.09783 168.13645,224.88214 168.4703,226.04631 168.78939,227.16392 168.84554,227.36573 169.05475,228.11771 173.04459,227.1485 175.21198,225.8192 175.74308,225.49347 176.36682,224.69614 176.86943,223.70047 177.31267,222.82242 177.82392,222.10402 178.00554,222.10402 178.35051,222.10402 179.2356,224.8372 179.33182,226.19958 179.38732,226.98547 179.38198,226.98848 177.56403,227.19469 174.74989,227.5139 172.42002,228.1285 170.39166,229.08668 169.078,229.70724 167.8421,230.05012 166.14041,230.26613 162.07809,230.7818 162.32187,230.88068 162.32187,228.71719 Z M 183.72498,226.14688 182.77081,226.04535 182.30622,223.34708 C 181.825,220.55222 180.93905,216.76333 179.54088,211.52068 179.09457,209.84719 178.72865,208.39994 178.72772,208.30456 178.72679,208.20918 179.73894,207.76463 180.97693,207.31667 182.57587,206.73811 183.85952,206.46896 185.4087,206.38742 186.83763,206.31222 188.71347,205.9461 190.84919,205.32556 192.64198,204.80467 194.78034,204.34837 195.6011,204.31156 196.96286,204.25049 197.12128,204.3025 197.41231,204.9061 197.58772,205.2699 197.77109,205.80568 197.81978,206.09672 197.9004,206.57855 197.77813,206.62021 196.45312,206.56235 190.24403,206.29126 189.48953,206.33438 188.25103,207.0311 187.1841,207.6313 187.06313,207.79622 187.08663,208.6186 187.11407,209.57901 187.97895,213.00093 188.33839,213.5712 188.45304,213.7531 188.89474,213.90193 189.31994,213.90193 189.94767,213.90193 190.12348,213.76512 190.25496,213.17433 190.56288,211.79071 190.66892,211.52068 190.90439,211.52068 191.67781,211.52068 193.53533,214.7372 193.54012,216.08475 193.54325,216.96837 193.5179,216.97036 192.27201,216.18386 191.13235,215.46443 189.1878,215.04397 188.92993,215.46122 188.73431,215.77774 189.33939,218.32199 190.17937,220.71495 190.85065,222.6273 190.79509,222.6104 193.93843,221.85827 195.10196,221.57986 196.09615,221.39427 196.14773,221.44585 196.33374,221.63187 195.88442,222.10402 195.52139,222.10402 194.55359,222.10402 192.17532,223.24485 191.95945,223.81264 191.76345,224.32816 191.47458,224.43818 189.91302,224.59205 188.53733,224.72761 187.80795,224.96152 186.91615,225.55315 186.26789,225.98321 185.49937,226.31558 185.20833,226.29174 184.91728,226.2679 184.24978,226.20271 183.72498,226.14688 Z M 197.84218,221.64803 C 196.81721,221.52084 196.75127,221.25874 197.6264,220.79038 197.98066,220.60078 198.51355,219.88072 198.81058,219.19025 199.21124,218.2589 199.52408,217.90168 200.02253,217.8064 200.54685,217.70617 200.72211,217.80081 200.82058,218.23734 201.27366,220.24606 201.46808,221.21981 201.47373,221.5087 201.48016,221.8371 199.86504,221.89907 197.84218,221.64803 Z M 14.301406,217.57438 C 13.294296,216.3775 12.867052,215.44543 12.28835,213.18273 11.590284,210.45332 11.632355,207.68055 12.470473,201.18015 13.345324,194.39484 13.446254,188.63544 12.732064,186.25297 11.925329,183.56179 10.728002,181.62771 8.4704134,179.36901 7.3041824,178.2022 5.7383754,176.83298 4.9908434,176.3263 -5.0437146,169.52481 -6.4266996,168.48728 -8.4536716,166.24013 -9.1573576,165.46001 -10.128205,164.22641 -10.61111,163.49881 -11.447828,162.23811 -12.832297,158.96983 -12.832297,158.25531 -12.832297,157.78547 -7.1792686,156.04006 1.0583284,153.96649 9.1400554,151.93215 12.620405,150.79193 15.86793,149.11463 18.554168,147.72722 21.37928,145.18886 22.337865,143.3014 23.153123,141.69615 24.287059,137.89419 25.112675,133.99777 27.355601,123.41246 29.495924,118.29978 32.758776,115.73322 L 33.47317,115.17128 34.371478,115.72647 C 35.892448,116.66648 39.854483,121.04013 41.823885,123.9531 42.853379,125.47584 44.63058,128.26954 45.773217,130.16131 49.581595,136.46652 50.875731,138.44451 53.252245,141.59244 54.954703,143.84751 54.36491,143.69567 62.30937,143.9242 65.29255,144.01002 72.37676,144.25147 78.05208,144.46078 83.72739,144.67008 88.40059,144.8423 88.43697,144.8435 88.47335,144.8447 88.50312,145.49606 88.50312,146.29097 88.50312,148.30712 87.68224,150.32329 86.31508,151.66506 85.33143,152.63044 80.61142,155.27839 80.337,155.0188 80.19437,154.88389 81.34747,153.04258 82.19051,152.05905 82.99682,151.11838 83.36587,150.00281 83.63587,147.68995 83.80478,146.24307 83.78484,146.1686 83.22852,146.1686 82.33843,146.1686 71.27327,147.21034 69.10918,147.49788 60.47287,148.64536 57.216462,148.42431 53.296411,146.42445 51.027853,145.26711 47.512424,141.74412 45.25266,138.36339 44.766311,137.63579 42.851281,135.25454 40.997036,133.07173 35.131641,126.167 35.046287,126.08582 34.668226,127.05245 33.520805,129.98623 32.088494,134.17672 30.446151,139.40493 29.352708,142.88578 28.144779,146.35297 27.761863,147.10978 25.877413,150.83433 22.982798,152.92814 16.007286,155.61238 12.953679,156.78744 0.02783843,161.24985 -0.32223457,161.24985 -1.3916546,161.24985 0.59852543,163.28358 4.5146934,166.19263 16.001732,174.72554 18.076333,176.92881 20.009807,182.64873 21.203853,186.18116 21.401579,188.53274 21.135998,196.04256 20.899712,202.72403 20.892772,208.82145 21.121197,209.04987 21.472154,209.40083 26.275847,206.48743 32.146869,202.36288 35.082654,200.30042 38.726882,198.21011 40.878119,197.35469 43.137274,196.45635 46.73126,195.65856 48.551035,195.65145 52.376392,195.63652 57.39692,197.25638 61.78143,199.9202 64.67312,201.67704 68.84141,205.38539 69.67479,206.94258 69.95592,207.46789 69.88755,207.49851 68.05708,207.66717 64.27785,208.01538 59.44646,207.07169 54.825063,205.08262 51.653709,203.71767 50.155995,203.31745 48.235435,203.32174 44.963161,203.32906 42.575683,204.54921 35.057286,210.0566 25.91649,216.75244 22.408827,218.38642 17.155284,218.39594 15.060414,218.39973 14.975271,218.37522 14.301406,217.57438 Z M 139.30312,211.78001 C 139.30312,209.57945 140.86348,206.31737 142.3019,205.51079 143.32156,204.93903 145.32283,205.1019 146.73732,205.87176 147.90597,206.50782 149.04147,207.69136 148.75648,207.97635 148.69382,208.03901 147.88063,207.73748 146.9494,207.3063 144.28644,206.07328 143.92321,206.04083 143.07396,206.96001 142.37962,207.71152 141.38985,209.95077 140.99962,211.65297 140.76313,212.68456 140.41388,213.10818 139.79989,213.10818 139.37989,213.10818 139.30312,212.90292 139.30312,211.78001 Z M 177.59882,191.67693 C 176.78594,191.09485 175.84383,190.62012 175.50522,190.62198 175.16662,190.62384 173.95331,190.92435 172.80898,191.28978 169.32288,192.40306 168.02432,191.68089 169.0002,189.1716 169.22834,188.585 169.68431,187.41237 170.01347,186.56575 L 170.61195,185.02645 170.03988,183.91992 C 169.72524,183.31133 169.04903,182.23257 168.53719,181.52269 167.54412,180.14535 167.19907,179.21998 167.44226,178.58625 167.56777,178.25918 168.06593,178.22146 170.45494,178.35815 174.1038,178.56692 174.51874,178.37337 176.19783,175.67939 177.36338,173.80934 178.01688,173.1561 178.72214,173.1561 179.12214,173.1561 179.64755,174.48183 180.33702,177.23083 180.99469,179.85303 180.8428,179.71813 184.52809,180.95338 186.11267,181.48451 187.09011,181.95463 187.13977,182.20952 187.24408,182.74491 186.49703,183.47485 185.84479,183.47485 185.3601,183.47485 185.35403,183.43576 185.74577,182.83789 185.97531,182.48756 186.06735,182.14455 185.95031,182.07565 185.83326,182.00674 184.85882,181.75264 183.78488,181.51099 180.51675,180.77562 180.20349,180.47485 178.87224,176.79412 178.62223,176.1029 178.37927,175.53735 178.33232,175.53735 178.28537,175.53735 177.63682,176.36038 176.8911,177.3663 175.31879,179.48723 174.7369,179.77068 171.95529,179.77068 170.89419,179.77068 169.96558,179.86846 169.89173,179.98797 169.81787,180.10747 170.28325,180.97067 170.92591,181.9062 172.34781,183.97606 172.45683,185.23149 171.45568,188.0069 170.70445,190.0895 170.79066,190.17403 172.9052,189.42797 174.23319,188.95943 176.4067,188.9091 177.22207,189.32801 178.38291,189.9244 180.04895,191.84678 180.04895,192.58984 180.04895,193.0338 178.89132,192.60247 177.59882,191.67693 Z M 55.689811,189.52521 C 55.687075,189.47173 55.641937,188.53501 55.5895,187.4436 55.537065,186.35219 55.234103,184.38766 54.916251,183.07797 54.598397,181.76829 54.161673,179.92282 53.945749,178.97693 53.729828,178.03105 53.20159,176.5205 52.771891,175.62017 52.342192,174.71983 51.990619,173.8841 51.990619,173.76299 51.990619,173.49778 58.22275,171.56377 59.06822,171.5666 59.80411,171.56907 59.80718,171.68206 59.09843,172.67741 58.59559,173.38358 58.55194,173.69421 58.70228,175.49638 58.79804,176.6443 59.42624,179.47031 60.15235,182.01964 L 61.43345,186.51756 62.27379,186.60088 C 63.43491,186.716 65.97002,185.94219 67.00816,185.15577 67.48245,184.79649 68.09486,184.06294 68.36907,183.52567 68.64329,182.98839 69.11595,182.32424 69.41945,182.04977 70.04948,181.47999 70.05035,181.48133 70.49396,183.68631 70.96699,186.03755 70.96208,186.04818 69.25468,186.36929 65.74319,187.0297 63.91121,187.52885 61.91249,188.36977 60.44591,188.9868 59.16606,189.31592 57.74531,189.44137 56.61752,189.54096 55.692547,189.57868 55.689811,189.52521 Z M 72.36354,185.78327 C 72.36354,184.85659 70.75113,177.03029 69.95994,174.11667 69.37235,171.95285 68.95701,170.01201 69.03694,169.80369 69.30544,169.10401 71.40452,168.44084 74.24024,168.15981 75.78174,168.00704 77.9844,167.58795 79.13503,167.22851 81.67005,166.43661 84.31492,165.94475 84.87746,166.16061 85.25369,166.30498 85.85728,167.56421 85.85728,168.20472 85.85728,168.37158 85.21169,168.39056 84.07135,168.25722 80.26537,167.8122 76.61869,168.32394 76.22158,169.35879 75.98071,169.98649 77.09178,174.28372 77.59676,174.67745 78.42376,175.32228 78.89991,175.06928 79.2151,173.81756 79.37999,173.16271 79.6115,172.62693 79.72956,172.62693 80.34624,172.62693 81.63407,174.83481 82.00653,176.5306 82.23489,177.57031 82.09858,177.58592 80.26116,176.73056 78.43564,175.88073 77.91978,175.87729 77.91978,176.71495 77.91978,177.85805 78.48463,180.13317 79.06096,181.31145 L 79.62047,182.45534 81.18549,182.2737 C 82.30708,182.14352 82.69895,182.17551 82.5685,182.38658 82.46838,182.54856 82.20949,182.6811 81.99319,182.6811 81.77688,182.6811 81.30399,182.977 80.94233,183.33867 80.52707,183.75393 79.6616,184.14076 78.59357,184.38845 77.66341,184.60417 76.50621,185.02219 76.02201,185.31739 75.43357,185.67615 74.68108,185.85445 73.7526,185.85511 72.98861,185.85566 72.36354,185.82333 72.36354,185.78327 Z M 87.57708,181.86768 C 86.99499,181.7611 85.92343,181.73861 85.19583,181.8177 83.69724,181.98059 83.72269,181.84584 85.34731,181.01583 86.1714,180.5948 86.56915,180.18883 86.77463,179.55902 87.05585,178.69703 87.5563,178.19513 88.14243,178.18723 88.51712,178.18219 89.18852,181.58465 88.86745,181.86143 88.73983,181.97145 88.15916,181.97427 87.57708,181.86768 Z M 105.96562,177.78653 C 105.60182,177.58512 104.73861,177.28244 104.04739,177.11391 102.41385,176.71562 102.38464,176.16889 103.94385,175.17557 104.69867,174.6947 104.69983,174.68964 104.517,172.66814 104.27888,170.03534 103.56408,166.27797 102.11829,160.05922 100.73378,154.1041 100.02563,151.66916 98.69408,148.28527 97.30119,144.74545 96.2702,141.44333 95.77353,138.93109 95.53918,137.74573 95.29236,136.58212 95.22503,136.34529 94.98404,135.49755 97.40861,134.30238 100.57638,133.70738 102.15802,133.4103 105.05942,132.76594 107.02395,132.27545 117.09674,129.76059 121.97542,128.92442 126.60312,128.91973 131.85911,128.9144 134.59681,129.90368 137.51264,132.86193 138.82852,134.19696 139.13521,134.71366 139.82775,136.76246 141.13772,140.63788 140.8256,142.2774 138.33598,144.5986 136.48053,146.32852 134.84019,147.38747 131.8023,148.81656 128.12075,150.54844 121.53891,152.5186 119.43465,152.5186 118.94968,152.5186 118.58511,152.68513 118.48203,152.95374 118.38918,153.19571 119.32794,156.45495 120.5968,160.29592 123.08378,167.8242 124.22187,172.01191 124.22187,173.63467 124.22187,175.66015 122.73182,175.73199 121.94395,173.7445 121.92802,173.70432 120.38021,173.96749 118.50436,174.32933 116.62852,174.69116 113.63428,175.23304 111.8505,175.53349 108.06087,176.1718 107.3573,176.44281 106.93745,177.42596 106.64634,178.10764 106.58603,178.13002 105.96562,177.78653 Z M 121.76305,150.78853 C 125.04997,149.86236 129.11384,148.42334 129.66728,147.98964 129.82461,147.86635 130.71758,147.47692 131.65166,147.12424 L 133.34999,146.483 133.26903,145.4659 C 133.04593,142.66335 131.7805,139.86077 130.40329,139.1191 129.91392,138.85556 129.5125,138.57771 129.51124,138.50166 129.50273,137.99029 128.71116,131.84217 128.56022,131.11521 L 128.37374,130.21702 125.43791,130.38125 C 123.8232,130.47157 121.54958,130.72149 120.38541,130.93663 117.09714,131.54428 114.7648,132.07247 114.41485,132.28875 113.90707,132.60258 114.28207,137.40563 115.07504,140.74464 115.61524,143.01928 117.06648,148.26893 118.01904,151.39412 118.15162,151.8291 117.9603,151.86004 121.76305,150.78853 Z M 146.66029,168.06287 C 146.3819,167.84202 146.14101,166.89705 145.93522,165.2186 145.50372,161.69918 145.02187,159.50217 143.52007,154.20667 142.80148,151.67283 142.21353,149.43256 142.21353,149.22829 142.21353,148.6568 146.8537,147.26895 149.42128,147.07249 150.62301,146.98053 153.32271,146.44189 155.42061,145.87549 157.54174,145.30283 159.84281,144.84568 160.60425,144.84568 161.96459,144.84568 161.97552,144.85236 162.27999,145.86857 162.80483,147.62035 162.85181,147.58775 160.13905,147.35427 155.53385,146.95789 154.14128,147.04183 152.46614,147.81678 150.65892,148.65282 150.65443,148.67669 151.63211,152.25402 152.42332,155.14905 152.59637,155.42902 153.59471,155.42902 154.4169,155.42902 154.64895,155.04202 154.64895,153.67082 154.64895,152.79094 154.68749,152.75337 155.50885,152.83257 156.31674,152.91046 156.41998,153.04348 157.21604,155.03214 157.96619,156.90613 158.29727,158.33943 157.98,158.33943 157.9203,158.33943 157.11663,157.98234 156.19406,157.54589 155.27149,157.10944 154.1739,156.75226 153.75497,156.75214 L 152.99328,156.75193 153.17224,158.10104 C 153.38963,159.73977 154.4963,163.3212 154.99679,164.00566 155.34777,164.48565 155.43732,164.48754 157.58434,164.06031 161.0041,163.37983 162.20707,162.90566 163.10328,161.88493 163.54663,161.37999 163.90937,160.81086 163.90937,160.62019 163.90937,160.10216 164.79802,159.39777 165.45155,159.39777 165.87839,159.39777 166.02603,159.55778 166.02603,160.02041 166.02603,160.36287 166.10297,161.37914 166.197,162.27879 L 166.36797,163.91452 164.25016,163.7379 C 162.67251,163.60633 161.59979,163.679 160.0443,164.02283 157.52233,164.5803 157.09177,164.78001 156.22819,165.79293 155.66867,166.44921 155.27686,166.61421 153.84694,166.79577 152.81778,166.92643 151.66072,167.287 150.94478,167.70015 149.62641,168.46095 147.39969,168.64946 146.66029,168.06287 Z M 168.81764,162.19706 C 169.23586,159.9678 166.91406,149.19786 165.31762,145.96175 164.79487,144.9021 164.42189,143.98039 164.48877,143.91351 164.66707,143.7352 171.54496,141.73806 172.70676,141.52725 173.90193,141.31038 173.95253,141.54262 173.0093,142.9157 172.36432,143.85461 172.32988,144.05674 172.47753,146.03631 172.65961,148.47749 173.80504,153.32686 175.10232,157.14881 176.14573,160.22281 175.77097,160.0914 179.90007,158.83114 182.7738,157.95403 184.15072,156.9467 184.43778,155.51143 184.52148,155.09292 184.81989,154.45668 185.10089,154.09757 185.60231,153.4568 185.61919,153.45426 186.00784,153.96159 186.48713,154.58723 186.89137,155.92649 187.10404,157.59334 L 187.26203,158.83162 186.23518,158.99459 C 185.67041,159.08423 184.43442,159.28102 183.48853,159.43189 180.91191,159.84289 179.06417,160.39869 177.0001,161.38363 174.78858,162.43894 173.47114,162.76404 170.71411,162.93484 L 168.65531,163.06238 Z M 190.77182,158.07485 C 190.7309,158.00209 190.61451,157.10912 190.51318,156.09047 190.26964,153.64223 188.98232,147.75057 187.69785,143.20566 187.12898,141.19277 186.66353,139.38279 186.66353,139.18349 186.66353,138.73539 187.68206,138.05044 189.08383,137.55587 189.66689,137.35015 191.66041,137.00511 193.51388,136.7891 195.7291,136.53093 197.92063,136.07016 199.90962,135.44438 204.07426,134.1341 205.14921,134.02616 206.06006,134.8268 206.45187,135.1712 206.84984,135.85554 206.94445,136.34757 L 207.11647,137.24216 205.42282,137.07562 C 199.73201,136.51606 198.71468,136.53847 197.1429,137.25806 196.32337,137.63325 195.57675,138.13854 195.48373,138.38093 195.28425,138.90077 195.747,141.59119 196.36505,143.50486 196.69047,144.51249 196.95921,144.89622 197.42053,145.012 198.46266,145.27356 198.8017,144.95453 198.98998,143.5352 199.08981,142.78269 199.30386,142.19985 199.48041,142.19985 200.36521,142.19985 202.02134,144.94991 202.42169,147.08391 202.63758,148.23475 202.30192,148.29539 200.94004,147.35161 200.07004,146.7487 197.24687,146.10636 197.24687,146.51132 197.24687,147.62149 198.91371,153.4359 199.37684,153.94126 199.63606,154.22413 202.64429,153.68739 204.65486,152.99955 206.76618,152.27724 207.95804,151.40557 208.25629,150.36563 208.50259,149.50684 209.68915,148.73311 210.11176,149.15572 210.37016,149.41412 210.94473,153.31849 210.74273,153.44333 210.64778,153.50202 209.86373,153.45019 209.00041,153.32816 207.20823,153.07484 205.66164,153.27055 202.73697,154.12075 201.23152,154.55838 200.68645,154.83477 200.68645,155.16051 200.68645,155.74221 199.7976,156.15546 198.22521,156.3048 197.40243,156.38294 196.46987,156.73067 195.57937,157.29136 194.4199,158.02142 193.94077,158.16117 192.52519,158.1822 191.60177,158.19592 190.81275,158.14761 190.77182,158.07485 Z M 144.15444,144.43093 C 143.57275,142.91508 145.12869,138.67746 146.77586,137.29146 147.75079,136.47111 149.71228,136.40707 151.15376,137.14854 152.29504,137.73558 153.77012,139.19813 153.49668,139.47156 153.39348,139.57477 152.5367,139.27836 151.59273,138.81286 149.40777,137.73541 148.55091,137.72298 147.68157,138.75614 146.96909,139.60287 146.07333,141.76265 145.77493,143.35328 145.54143,144.59793 144.48748,145.29882 144.15444,144.43093 Z"
       id="path12957"
       inkscape:connector-curvature="0" />
  </g>
</svg>
