<?xml version="1.0" encoding="UTF-8" standalone="no"?>
<!-- Created with Inkscape (http://www.inkscape.org/) -->

<svg
   xmlns:dc="http://purl.org/dc/elements/1.1/"
   xmlns:cc="http://creativecommons.org/ns#"
   xmlns:rdf="http://www.w3.org/1999/02/22-rdf-syntax-ns#"
   xmlns:svg="http://www.w3.org/2000/svg"
   xmlns="http://www.w3.org/2000/svg"
   xmlns:sodipodi="http://sodipodi.sourceforge.net/DTD/sodipodi-0.dtd"
   xmlns:inkscape="http://www.inkscape.org/namespaces/inkscape"
   width="169.8625mm"
   height="169.59792mm"
   viewBox="0 0 169.8625 169.59792"
   version="1.1"
   id="svg12965"
   inkscape:version="0.92.4 (5da689c313, 2019-01-14)"
   sodipodi:docname="rioacai.svg">
  <defs
     id="defs12959" />
  <sodipodi:namedview
     id="base"
     pagecolor="#ffffff"
     bordercolor="#666666"
     borderopacity="1.0"
     inkscape:pageopacity="0.0"
     inkscape:pageshadow="2"
     inkscape:zoom="0.7"
     inkscape:cx="-45.853851"
     inkscape:cy="605.76893"
     inkscape:document-units="mm"
     inkscape:current-layer="layer1"
     showgrid="false"
     inkscape:window-width="3347"
     inkscape:window-height="1417"
     inkscape:window-x="-8"
     inkscape:window-y="-8"
     inkscape:window-maximized="1" />
  <metadata
     id="metadata12962">
    <rdf:RDF>
      <cc:Work
         rdf:about="">
        <dc:format>image/svg+xml</dc:format>
        <dc:type
           rdf:resource="http://purl.org/dc/dcmitype/StillImage" />
        <dc:title></dc:title>
      </cc:Work>
    </rdf:RDF>
  </metadata>
  <g
     inkscape:label="Layer 1"
     inkscape:groupmode="layer"
     id="layer1"
     transform="translate(-6.5389867,-26.236755)">
    <path
       style="fill:#000000;stroke-width:0.26458335"
       d="M 84.59107,193.94878 C 67.893917,192.59787 51.947022,186.2234 39.082737,175.75768 35.31984,172.69639 29.087078,166.43634 26.300437,162.91944 15.067406,148.7427 9.3001241,132.6542 8.7332364,113.91371 8.1314693,94.020149 14.737747,74.54387 27.250136,59.323169 29.833208,56.18099 34.786306,51.13628 37.75982,48.6191 49.65324,38.550919 63.447195,32.342001 79.563987,29.802256 83.320668,29.210264 94.581737,28.975234 99.072462,29.395095 114.9362,30.878276 130.08119,36.965702 142.47757,46.841492 153.12862,55.326836 161.75942,66.548768 167.02497,78.758484 173.28658,93.277881 175.14761,108.78549 172.66945,125.79281 169.52626,147.36418 157.37777,166.28335 138.0369,179.72699 122.81883,190.30492 103.40483,195.47093 84.59107,193.94878 Z M 97.952528,193.18069 C 102.0184,192.8003 105.52624,192.25715 109.11415,191.45245 112.11663,190.77905 117.80065,189.17131 118.85461,188.69734 119.14565,188.56646 120.51487,188.02316 121.89732,187.49002 125.25628,186.19463 131.7513,182.82681 135.44056,180.46752 142.66527,175.84731 149.85358,169.50453 155.3807,162.87285 157.6351,160.16792 159.55635,157.47965 159.55635,157.03015 159.55635,156.83556 159.60957,156.72956 159.67461,156.79461 159.99613,157.11613 163.98596,150.2724 165.6847,146.48556 166.20586,145.32377 166.74675,144.16647 166.88667,143.91379 167.02659,143.6611 167.14107,143.21461 167.14107,142.9216 167.14107,142.62858 167.25038,142.38884 167.38399,142.38884 167.72125,142.38884 170.17851,134.67552 170.96763,131.13983 172.46843,124.41541 173.00087,119.31411 172.99692,111.69717 172.9892,96.797753 169.40071,83.295681 162.09148,70.664266 155.2763,58.886638 144.46429,47.953369 132.9344,41.180183 114.02045,30.069273 91.865847,26.987972 70.435862,32.487777 67.42521,33.260433 62.453851,34.919135 59.833902,36.025138 57.159771,37.154014 50.193694,40.680411 48.914942,41.552581 48.527698,41.816699 46.96583,42.849955 45.444127,43.848705 43.922421,44.847454 41.48164,46.618021 40.020169,47.783297 37.340061,49.920226 30.211398,56.868626 28.498769,59.013352 27.989795,59.650741 27.13641,60.722304 26.602358,61.394602 26.068305,62.066901 24.505733,64.283839 23.129974,66.321131 15.948258,76.956174 11.363965,89.466048 9.8473751,102.56743 9.3058703,107.24533 9.3199345,116.54034 9.8746801,120.61331 10.108582,122.33063 10.298682,123.91431 10.297124,124.13259 10.291887,124.86623 11.600747,131.12138 12.262501,133.5253 14.036579,139.96988 16.643725,146.4411 19.457755,151.38467 20.817341,153.77314 22.304704,156.23348 22.736735,156.80863 22.846044,156.95415 23.809267,158.26626 24.877229,159.72442 27.567964,163.39826 29.6673,165.80914 33.397066,169.50863 36.554336,172.64027 42.961288,178.01563 44.506695,178.82948 44.943258,179.05939 45.895758,179.68209 46.623362,180.21327 49.402415,182.24208 56.371818,185.84913 60.987228,187.64737 62.109392,188.08458 63.265653,188.54972 63.556695,188.681 64.297968,189.01538 68.963823,190.40308 71.494195,191.04174 79.525371,193.06878 90.052419,193.91981 97.952528,193.18069 Z M 87.104612,190.38485 C 79.831372,189.83258 74.835279,188.99009 69.130693,187.35391 60.257635,184.80894 53.685218,181.58911 44.727228,175.39863 40.011464,172.13977 32.927083,165.2787 28.941748,160.11074 26.196413,156.55075 23.845894,152.90706 21.575162,148.69133 20.581307,146.8462 19.768153,145.27215 19.768153,145.19345 19.768153,145.11475 19.480861,144.42175 19.129727,143.65345 16.571254,138.05541 14.58969,131.43947 13.441454,124.66176 12.717327,120.38744 12.264764,114.37474 12.455681,111.56488 12.912578,104.8404 16.622523,96.274923 22.02464,89.472173 23.184859,88.011138 24.787544,86.363649 27.558477,83.783631 29.301934,82.160299 33.232114,80.028379 36.17232,79.111068 39.03136,78.219078 44.419142,78.215083 47.244892,79.102856 51.023351,80.289943 53.763185,81.822648 56.855074,84.478935 57.680331,85.187923 58.41574,85.768006 58.489321,85.768006 58.562902,85.768006 58.668621,85.559647 58.724258,85.304985 58.83656,84.790934 59.399337,86.643944 60.110402,89.869048 60.367074,91.033215 60.983336,93.354933 61.479875,95.028423 63.688939,102.47369 64.04923,103.65059 64.233846,104.02426 64.34169,104.24254 64.756641,105.25457 65.155958,106.27321 69.563525,117.51676 77.556228,124.76824 88.715448,127.64788 93.456075,128.8712 94.946168,129.02826 101.6567,129.01192 108.53029,128.99518 111.01939,128.65885 115.54732,127.13497 118.15332,126.25793 123.01007,123.80772 124.67545,122.52988 128.66002,119.47253 132.49713,114.8967 133.75934,111.69717 133.96027,111.18785 134.42253,110.11629 134.78659,109.31592 138.28033,101.63515 140.15396,88.87377 138.36045,84.974256 136.41453,80.743367 130.92182,79.668799 122.9902,81.96729 116.99926,83.703399 112.43235,88.348797 109.10929,96.086756 108.25527,98.075389 107.84241,99.286725 106.56544,103.55051 105.8372,105.98208 105.01225,108.48239 104.73222,109.10676 104.45218,109.73112 104.08031,111.19447 103.90584,112.35863 103.5737,114.57473 103.11889,116.61676 102.38841,119.17165 101.78899,121.26812 101.31791,121.21561 98.828355,118.77478 92.382229,112.45482 89.088987,104.33289 89.088987,94.755153 89.088987,89.847574 89.783113,85.529505 91.490623,79.814881 91.736326,78.992569 91.735595,78.335376 91.487347,76.867981 L 91.16785,74.979414 90.010298,77.19236 C 87.344539,82.288616 84.469303,85.413152 80.972107,87.014223 78.845635,87.987755 76.137741,88.015755 73.764227,87.088756 70.510665,85.818044 67.228839,81.741942 66.097031,77.565923 65.245536,74.424181 65.349279,69.202753 66.322842,66.20055 67.94954,61.184264 71.706311,56.498961 76.859305,53.059873 80.050719,50.929937 85.35239,48.68185 90.279612,47.36921 L 93.190028,46.59386 89.35357,46.708341 C 84.57493,46.850938 81.50153,47.602837 77.315028,49.653541 71.197044,52.650355 66.687266,57.099968 63.237758,63.543006 60.516678,68.62548 59.330034,73.55852 59.041348,80.988059 58.965074,82.951035 58.848495,84.611277 58.782286,84.677486 58.716074,84.743696 58.661903,84.431924 58.661903,83.984656 58.661903,83.335266 58.408732,82.964243 57.405133,82.142857 50.767552,76.710395 42.71295,74.84444 35.475516,77.062574 28.37578,79.238507 21.000516,85.846331 16.013717,94.499256 13.83284,98.283441 13.460164,97.6965 14.729716,92.477035 18.747628,75.958343 28.399081,60.882853 41.823624,50.156578 53.199276,41.067378 65.154937,35.854184 80.093153,33.469382 84.45132,32.773625 97.887772,32.774295 102.31815,33.470491 112.42619,35.058881 120.94356,37.895309 129.11826,42.395388 132.15305,44.066007 138.41439,48.141199 139.44155,49.114304 139.7604,49.416373 140.61659,50.1366 141.3442,50.714809 143.79782,52.664639 144.24715,53.072334 147.16503,55.996306 148.76576,57.600377 150.84374,59.865297 151.78278,61.029464 152.72181,62.193631 153.58678,63.265193 153.70492,63.410714 156.3409,66.657377 159.89051,72.445756 162.38534,77.565923 166.26345,85.525013 168.70519,94.325674 169.64471,103.7306 170.1122,108.41036 170.14394,109.81834 169.79439,110.3712 169.58615,110.70057 169.4028,110.63326 168.67397,109.95987 167.19353,108.59204 164.1963,106.75055 162.11399,105.92943 157.16801,103.97907 150.92528,104.01943 145.14446,106.03913 142.83584,106.84571 138.4244,109.04173 136.36455,110.40976 135.51751,110.97232 134.7434,111.43259 134.6443,111.43259 134.5452,111.43259 134.18515,111.95846 133.84418,112.60118 133.50322,113.24391 132.82566,114.375 132.33849,115.11472 131.85133,115.85445 131.51515,116.45967 131.59144,116.45967 131.66772,116.45967 132.22643,116.05726 132.833,115.56541 134.70084,114.05087 139.38824,111.01734 141.47649,109.97163 149.10331,106.15245 156.23894,105.61948 162.33631,108.41359 165.95919,110.07377 170.05581,113.46371 170.04606,114.79338 170.03502,116.29804 169.26939,123.28065 168.86602,125.55538 166.95896,136.30994 162.8632,146.44755 156.6668,155.7503 153.13086,161.05886 146.40395,168.41894 141.11514,172.76574 129.75802,182.10001 115.84104,188.04648 101.11021,189.8591 97.88166,190.25637 89.537651,190.56959 87.104612,190.38485 Z M 96.49732,189.48307 C 114.98049,188.23843 131.39699,181.01565 145.29352,168.01417 148.60338,164.9175 153.26245,159.32317 156.16817,154.95655 162.04897,146.1191 165.95187,136.63253 167.92434,126.38155 168.56122,123.07166 169.25774,117.45736 169.25774,115.63371 169.25774,114.46077 169.18606,114.34478 167.60409,112.95766 163.2891,109.17414 159.03051,107.45718 153.99196,107.46957 146.2615,107.48857 137.10672,112.22005 127.85292,120.97905 125.18222,123.50695 123.92205,124.35739 120.22952,126.12378 113.93873,129.13311 108.8755,130.08358 100.20149,129.88345 91.933922,129.69271 86.889005,128.61417 81.283778,125.83912 72.721523,121.60008 66.965036,114.4627 63.169162,103.37907 61.880036,99.614933 59.605511,91.671704 59.073309,89.075298 58.72253,87.363976 58.587431,87.127102 57.295735,85.958607 50.040831,79.39567 41.886915,77.525957 34.343128,80.695518 25.545255,84.391993 16.912381,95.698046 13.83123,107.55895 13.020276,110.68072 12.923127,114.88984 13.540264,120.16546 16.27452,143.5394 28.632981,163.72061 48.224885,176.80499 62.301043,186.2057 79.211755,190.64706 96.49732,189.48307 Z M 76.491677,175.20245 C 75.650934,174.86275 74.801487,173.63667 74.801487,172.76285 74.801487,171.10138 75.957528,169.91727 77.579612,169.91727 80.139458,169.91727 81.280847,172.73948 79.458153,174.56217 78.533398,175.48693 77.661511,175.67512 76.491677,175.20245 Z M 79.095082,173.79207 C 79.346507,173.47347 79.554867,172.9395 79.558102,172.60546 79.565976,171.79278 78.430988,170.69926 77.579612,170.69926 76.168023,170.69926 75.09583,172.61797 75.925966,173.6585 76.823906,174.78402 78.264367,174.84473 79.095082,173.79207 Z M 90.676487,175.13771 C 90.312685,174.94809 89.805275,174.37788 89.548907,173.87058 88.161022,171.12422 91.702467,168.50953 93.871838,170.67891 94.87989,171.68696 94.962279,173.47617 94.049511,174.53732 93.338976,175.36337 91.676977,175.6592 90.676487,175.13771 Z M 93.153892,174.0727 C 94.217353,173.10589 94.273714,172.4037 93.361111,171.49109 92.92377,171.05375 92.28637,170.69926 91.937353,170.69926 90.25545,170.69926 89.500374,173.06238 90.84446,174.11964 91.740747,174.82466 92.340152,174.81247 93.153892,174.0727 Z M 104.88565,175.05378 C 104.04055,174.57919 103.64107,173.72146 103.64107,172.38147 103.64107,169.53795 108.04275,168.9286 108.94019,171.64789 109.31992,172.79846 109.07711,173.91097 108.28356,174.65647 107.48188,175.40961 105.85751,175.59955 104.88565,175.05378 Z M 107.17132,174.37425 C 107.81726,174.07994 108.40357,173.13801 108.40357,172.39457 108.40357,171.75755 107.16484,170.69926 106.4192,170.69926 106.04216,170.69926 105.44144,170.9915 105.08425,171.34869 104.21626,172.21668 104.2373,173.29081 105.13743,174.06427 105.92982,174.74515 106.25014,174.79397 107.17132,174.37425 Z M 109.32277,164.86736 C 109.22869,164.71513 109.34512,164.29539 109.58152,163.9346 109.81791,163.57382 110.27544,162.53726 110.59826,161.63113 111.09475,160.23753 111.31258,159.94237 112.01172,159.7159 L 112.83823,159.44817 112.08045,158.54047 C 110.89988,157.12634 110.45398,155.42854 110.56057,152.75336 110.63887,150.78807 110.78144,150.1836 111.52051,148.68327 113.1188,145.43874 116.1637,143.44717 119.52599,143.44717 121.66707,143.44717 122.27601,144.01865 122.0989,145.86182 121.92241,147.69867 121.37309,148.20613 119.54121,148.22461 117.48783,148.24532 116.33401,148.70085 115.73714,149.72645 114.70455,151.50076 115.33452,155.05365 116.87639,156.15155 118.34801,157.19945 121.04215,156.75737 122.36478,155.25099 122.78196,154.77585 123.63812,153.16702 124.26737,151.6758 126.12363,147.27677 128.73128,144.96879 132.64762,144.25862 134.9617,143.839 137.29834,144.34176 138.099,145.43155 138.51917,146.00346 138.30165,147.87352 137.73048,148.59964 137.19162,149.2847 137.07248,149.31649 135.61381,149.16449 131.06129,148.69009 131.05648,148.69014 130.21052,149.22218 129.30989,149.7886 128.5119,151.22475 128.5119,152.2792 128.5119,153.49579 129.32164,155.08352 130.16434,155.5193 131.96077,156.44826 133.44258,155.40846 134.88415,152.20734 135.78352,150.21023 136.21212,149.79717 137.38501,149.79717 138.45455,149.79717 138.88326,150.29631 139.77113,152.5753 140.16798,153.59395 140.70246,154.65062 140.95886,154.92347 141.41429,155.40813 141.43555,155.40728 141.88134,154.88664 142.7666,153.85273 143.91309,150.80427 144.03494,149.16032 144.22566,146.58724 144.31856,146.35915 145.3515,145.92756 146.0772,145.62434 146.48358,145.59734 147.098,145.81153 148.48665,146.29561 148.60263,146.67386 148.61182,150.74835 148.61936,154.0892 148.67338,154.52575 149.13044,154.93939 149.93593,155.66834 150.6299,155.2427 151.38971,153.55368 152.85353,150.29968 152.92869,150.19405 153.78012,150.19405 154.50678,150.19405 154.58029,150.27791 154.6559,151.19324 154.77658,152.65428 153.34905,156.23915 151.87618,158.1738 150.05266,160.56902 145.93519,160.39323 144.73136,157.86878 144.488,157.35846 144.21755,156.94092 144.13036,156.94092 144.04317,156.94092 143.77793,157.26835 143.54094,157.66853 142.46278,159.48911 140.69693,160.2502 139.09274,159.58573 138.47339,159.32918 138.07002,158.79959 137.34353,157.28916 136.82421,156.20944 136.29372,155.36196 136.16468,155.40587 136.03564,155.44979 135.42183,156.25735 134.80067,157.20047 133.3365,159.42351 131.90831,160.42896 129.98861,160.58816 129.18986,160.6544 128.24236,160.63481 127.88306,160.54463 126.8944,160.29649 125.58167,159.07111 125.06269,157.91194 124.65456,157.00035 124.57828,156.94261 124.42405,157.42855 124.32771,157.73207 123.7004,158.46321 123.03003,159.0533 121.46181,160.4337 119.58752,160.99784 117.00312,160.86734 115.1067,160.77157 115.08205,160.7787 115.30275,161.35919 115.59944,162.13953 115.13774,163.41629 114.37912,163.91336 113.26121,164.64584 109.61146,165.33446 109.32277,164.86736 Z M 112.49798,163.79416 C 113.79704,163.46705 114.90273,162.47376 114.66306,161.84918 114.41699,161.20793 114.09302,161.34913 112.87278,162.62947 111.68128,163.87965 111.04666,164.13345 111.05345,163.35707 111.05696,162.95683 111.09621,162.94786 111.343,163.29092 111.58739,163.63067 111.60812,163.62393 111.48697,163.24415 111.39822,162.9659 111.74255,162.34938 112.41054,161.59051 113.45786,160.40069 113.46447,160.38051 112.80668,160.38051 112.04801,160.38051 111.31399,161.24747 111.31399,162.14356 111.31399,162.46639 111.2093,162.79523 111.08134,162.87431 110.95339,162.95339 110.78594,163.25808 110.70924,163.55139 110.54605,164.1754 110.83057,164.21402 112.49798,163.79416 Z M 113.16607,161.57113 C 113.50785,161.20733 113.72795,160.90967 113.65519,160.90967 113.58243,160.90967 113.24326,161.20733 112.90149,161.57113 112.55971,161.93493 112.33961,162.23259 112.41237,162.23259 112.48513,162.23259 112.82429,161.93493 113.16607,161.57113 Z M 120.29403,159.72462 C 121.82785,159.18346 122.87024,158.38863 123.63506,157.17707 124.43675,155.90712 124.98393,155.871 125.47879,157.05537 126.25007,158.9013 127.63394,159.89544 129.43225,159.89544 131.40951,159.89544 132.96867,158.71752 134.65618,155.94885 135.9844,153.76964 136.79221,153.80644 137.64086,156.08478 138.39721,158.11533 139.2334,159.05759 140.27903,159.05759 141.36397,159.05759 142.61033,158.0842 143.3289,156.67569 144.00496,155.35051 144.91607,155.01151 144.91607,156.08514 144.91607,156.86785 145.8079,158.30097 146.52611,158.67237 147.41227,159.13062 149.21804,159.17615 150.02669,158.76063 150.34455,158.59731 150.88846,158.15082 151.2354,157.76845 152.27887,156.61837 154.49293,151.34834 154.09839,150.9538 153.69429,150.54969 153.18661,151.20724 152.3805,153.17885 151.90245,154.34805 151.36684,155.41795 151.19026,155.5564 150.59389,156.02398 149.23464,156.13552 148.71899,155.75919 148.28201,155.44028 148.20771,154.90845 148.09107,151.26473 147.94617,146.73813 147.90614,146.63379 146.31123,146.62622 145.15908,146.62076 144.68237,147.40467 144.70346,149.27006 144.71626,150.40215 144.49267,151.25059 143.7014,153.07245 142.63839,155.51997 141.89598,156.31597 140.95482,156.01726 140.38487,155.83637 139.40941,154.13292 138.83229,152.31072 138.39844,150.94083 138.10378,150.59092 137.38405,150.59092 136.62579,150.59092 136.18495,151.12513 135.20064,153.23676 134.23987,155.29789 133.61437,155.99394 132.34703,156.4122 130.68469,156.96082 128.99803,156.21287 128.33861,154.63465 127.78184,153.30212 127.83197,151.03024 128.44116,149.98717 129.56944,148.0553 131.42503,147.54915 134.62102,148.3015 136.36509,148.71206 137.14521,148.50174 137.51832,147.52037 138.55129,144.80348 133.64167,143.90311 129.69946,146.08648 127.44931,147.33271 126.26573,148.89498 124.63609,152.76989 123.18368,156.22338 121.6685,157.47104 118.92926,157.4691 117.23026,157.4679 116.13754,156.86647 115.25502,155.44683 114.71608,154.57989 114.62128,154.09095 114.62128,152.17842 114.62128,150.23679 114.70688,149.80945 115.24769,149.0512 116.01308,147.97807 116.71776,147.69204 118.94124,147.55201 120.93732,147.4263 121.40754,147.08051 121.44639,145.70972 121.48065,144.50126 121.11712,144.25023 119.32518,144.24497 116.30567,144.23612 113.00802,146.65386 111.82026,149.74736 111.01567,151.84289 111.00217,154.80979 111.78986,156.42598 112.67732,158.24688 114.05904,159.57568 115.42606,159.92293 116.54165,160.2063 119.2404,160.09636 120.29403,159.72462 Z M 55.751487,160.67898 C 52.606128,159.64453 50.02335,158.00895 46.98143,155.12521 42.955448,151.30858 40.532675,147.27364 40.242749,143.90247 40.123986,142.52153 40.200247,142.06487 40.716446,141.06592 41.514766,139.52102 42.758773,138.90816 46.847403,138.04551 52.778314,136.79415 54.965714,134.98786 54.951926,131.35303 54.944394,129.36754 54.294262,127.96471 52.752805,126.60787 50.343853,124.48743 46.208643,124.0431 43.001877,125.56015 40.025135,126.96837 37.434277,130.60922 36.306895,134.96838 35.31979,138.78515 35.536881,145.24649 36.823187,150.33487 37.799338,154.19634 37.905259,155.42543 37.380336,156.79992 36.281963,159.67597 32.495618,161.00837 30.80492,159.11378 28.841925,156.91405 28.175845,145.50038 29.549768,137.60602 31.018546,129.16664 34.951869,122.5626 40.537945,119.1569 43.67757,117.24274 48.641426,116.30399 52.095228,116.97122 58.340921,118.17781 61.845251,122.70021 61.833763,129.539 61.823182,135.83932 57.992047,140.33085 50.276443,143.08851 46.72498,144.35785 46.888363,144.19569 47.77086,145.57536 48.665535,146.97407 51.20504,149.54295 52.755038,150.61718 54.453449,151.79428 58.291124,153.62848 60.705148,154.41691 62.178229,154.89803 63.075254,155.35875 63.483273,155.8438 L 64.085862,156.56015 63.992292,152.24134 C 63.88462,147.27174 64.064494,146.50534 65.477049,145.91514 66.638538,145.42984 67.97856,145.82216 68.412506,146.77457 68.594415,147.17382 68.71607,148.91656 68.71607,151.12323 68.71607,154.53485 68.754982,154.82646 69.245237,155.08884 70.369123,155.69033 71.251718,154.56265 72.406941,151.04917 73.160173,148.7583 74.333809,147.0214 75.951263,145.80381 77.47776,144.65469 78.727327,144.24001 80.653017,144.24351 84.590803,144.25065 87.513179,147.59317 87.495205,152.06939 87.483791,154.91308 85.694605,158.16118 83.19825,159.87012 82.097584,160.6236 81.669205,160.74858 79.820379,160.85561 78.240181,160.94708 77.40832,160.86563 76.541326,160.53452 75.268918,160.04858 72.949403,157.78654 72.949403,157.03159 72.949403,156.74969 72.67543,156.99295 72.244633,157.65733 70.375955,160.53927 66.133028,160.61746 64.714903,157.79609 L 64.285612,156.94201 64.119739,157.97933 C 64.028508,158.54985 63.657525,159.36882 63.295334,159.79926 61.773599,161.60774 59.412656,161.88306 55.751487,160.67898 Z M 61.921496,159.96477 C 63.404708,158.9569 63.905284,157.19355 62.952866,156.33162 62.693521,156.09691 61.245906,155.47486 59.735945,154.94928 55.106962,153.33803 51.112981,150.83976 48.70296,148.04804 47.086869,146.17599 46.49107,145.18326 46.49107,144.36254 46.49107,143.62937 46.81869,143.4454 50.226286,142.2651 57.955352,139.58794 61.812633,134.38913 61.047149,127.68082 60.35053,121.576 56.461279,117.97972 50.132176,117.58804 44.829852,117.25991 39.672384,119.67208 36.082171,124.15929 33.237937,127.71414 31.314115,132.19149 30.295661,137.62634 29.505415,141.84339 29.431694,152.28858 30.170372,155.37805 30.763502,157.85878 31.391766,158.94187 32.343114,159.12373 33.945044,159.42996 36.049852,158.24952 36.69982,156.68036 37.117959,155.67089 36.95215,153.95703 36.072302,150.19405 33.230905,138.04185 36.186311,127.47339 43.240251,124.56162 44.21953,124.15739 45.136634,124.03686 47.28482,124.03006 49.699241,124.02241 50.218819,124.10282 51.25357,124.64427 53.303263,125.71679 54.13361,126.51949 54.987396,128.25378 55.708947,129.71946 55.80076,130.14575 55.707481,131.59718 55.441123,135.74173 53.121277,137.5979 46.49107,138.9715 43.076019,139.679 41.93726,140.22403 41.368104,141.42344 39.00216,146.4093 47.934155,157.55278 56.280653,160.02821 59.034072,160.84482 60.653179,160.82661 61.921496,159.96477 Z M 81.945237,159.67604 C 83.903034,158.87122 85.893275,156.24519 86.581528,153.55869 86.967235,152.05312 86.967102,151.77382 86.579948,150.26019 86.071723,148.27323 85.187459,146.92408 83.732542,145.91582 82.763466,145.24425 82.431147,145.16708 80.51265,145.16804 78.655968,145.16897 78.233553,145.26017 77.315028,145.8584 74.89929,147.43175 73.891439,148.88779 72.689429,152.54097 71.728973,155.46002 70.072277,156.7694 68.722394,155.67633 68.059337,155.13942 68.107047,155.53942 67.965939,149.33415 67.931205,147.80667 67.814529,147.30813 67.393153,146.88676 66.694862,146.18847 66.184568,146.21921 65.396753,147.00702 64.759959,147.64381 64.747405,147.74037 64.751672,151.96796 64.755691,155.94956 64.801673,156.36006 65.352586,157.33278 66.049702,158.56363 66.870228,159.04827 68.266188,159.05369 69.837086,159.05978 71.248897,158.10605 72.143551,156.43437 72.589761,155.60062 73.144793,155.76804 73.728649,156.91249 74.430811,158.28885 76.245056,159.80525 77.424227,160.00139 77.946253,160.08822 78.492424,160.20232 78.637945,160.25496 79.073589,160.41253 80.954605,160.08327 81.945237,159.67604 Z M 78.398513,156.87043 C 77.830265,156.5454 76.996827,155.82193 76.54643,155.26272 75.776847,154.30721 75.727528,154.11232 75.727528,152.02666 75.727528,149.89948 75.761448,149.77343 76.544564,148.99032 78.260665,147.27421 80.795797,147.45589 82.640078,149.42715 83.801892,150.66895 84.062493,151.43442 84.060914,153.60056 84.059697,155.26895 83.411555,156.42245 82.134924,157.02825 80.869171,157.62889 79.63327,157.57668 78.398513,156.87043 Z M 82.402693,155.77929 C 83.299229,154.95768 83.381546,154.76241 83.381546,153.45731 83.381546,150.98112 81.878162,148.99842 79.689217,148.58777 76.813894,148.04835 75.130904,151.86739 77.050445,154.57566 78.629632,156.80372 80.761665,157.28318 82.402693,155.77929 Z M 92.416993,160.66798 C 91.976324,160.18105 91.961973,159.95047 92.2474,157.94317 93.005177,152.61401 94.997421,145.53683 96.587472,142.52566 98.687943,138.54788 102.11833,137.31035 104.66543,139.6115 105.9757,140.79525 106.8864,142.52227 108.01147,145.95682 109.02181,149.04109 110.25565,155.59819 110.25565,157.88318 110.25565,159.57579 109.65885,160.38051 108.40357,160.38051 107.21714,160.38051 106.62192,159.61078 106.42554,157.82258 106.15873,155.39305 106.01497,155.19336 104.39242,154.99851 103.61538,154.9052 101.88679,154.82782 100.55112,154.82656 97.611864,154.82377 97.153108,154.53963 97.378213,152.86135 97.628768,150.99331 98.185737,150.7608 101.98742,150.93722 104.64702,151.06064 105.22857,151.02178 105.22857,150.72064 105.22857,150.19269 103.9179,146.10523 103.44774,145.16697 102.04811,142.37379 100.24665,142.54174 98.897742,145.59117 98.133493,147.31888 96.904159,152.26622 96.24187,156.27947 95.894673,158.38335 95.48993,159.97591 95.199605,160.38051 94.565989,161.26351 93.093596,161.41562 92.416993,160.66798 Z M 94.622152,160.01145 C 94.790612,159.80847 95.16191,158.23089 95.44726,156.50572 96.319126,151.23457 97.69855,145.98616 98.68235,144.1969 99.732671,142.28666 102.16731,141.83776 103.34655,143.33692 104.2651,144.50467 106.02232,149.74379 106.02232,151.31469 V 151.92727 L 102.51659,151.75418 C 99.202105,151.59053 98.984443,151.61063 98.526579,152.12252 98.260226,152.42031 98.081632,152.94166 98.129704,153.28108 98.215186,153.88461 98.304615,153.90312 102.18586,154.12043 104.36867,154.24264 106.29017,154.45456 106.45584,154.59136 106.62152,154.72816 106.84164,155.51696 106.94501,156.34425 107.28182,159.04 107.52409,159.59066 108.36982,159.58271 109.68512,159.57033 109.83547,158.23609 109.05065,153.54095 107.80276,146.07549 105.74441,140.98619 103.43489,139.65586 101.48551,138.53298 98.99554,139.8063 97.313885,142.78603 95.384699,146.20437 92.168917,158.89183 92.922598,160.11132 93.165748,160.50474 94.266433,160.44006 94.622152,160.01145 Z M 145.9744,143.5502 C 145.9744,143.31583 146.52237,142.33356 147.1921,141.36739 147.86184,140.40122 148.25474,139.75954 148.06523,139.94144 147.48766,140.49581 146.56984,140.31419 145.58674,139.45102 144.72151,138.69134 144.65192,138.518 144.6573,137.13591 144.66795,134.39748 145.87752,132.73622 150.29017,129.39958 152.18686,127.96539 153.10255,127.52515 153.12809,128.03519 153.13356,128.14434 153.17624,129.42426 153.22294,130.87947 153.26964,132.33467 153.39966,134.67107 153.51188,136.07145 L 153.71591,138.61759 152.81222,139.6037 C 152.17083,140.30357 151.5273,140.68498 150.59511,140.91772 149.48622,141.19459 149.12141,141.45826 148.25233,142.611 147.52294,143.57845 147.04103,143.97634 146.59868,143.97634 146.2011,143.97634 145.9744,143.82159 145.9744,143.5502 Z M 151.29581,139.71801 C 151.89729,139.41734 152.42727,138.87001 152.72552,138.2415 153.14654,137.35426 153.16262,137.06478 152.86961,135.64861 152.68821,134.77183 152.47383,132.95314 152.39322,131.60707 152.31261,130.261 152.18609,129.15967 152.11207,129.15967 151.54906,129.15967 146.86206,133.3109 146.18117,134.4126 144.94737,136.40892 145.15992,138.42394 146.69071,139.24319 147.76453,139.81789 148.50422,138.76253 149.30685,135.51059 150.06952,132.42051 150.56502,131.27634 151.14057,131.27634 151.65258,131.27634 151.65844,131.2285 150.71782,134.73151 150.27076,136.39643 149.84052,138.08605 149.76174,138.48624 149.68296,138.88642 149.53207,139.21384 149.42643,139.21384 149.32078,139.21384 149.10047,139.50766 148.93685,139.86677 148.64821,140.50025 148.66469,140.51488 149.48969,140.35775 149.95737,140.26867 150.77013,139.98079 151.29581,139.71801 Z M 66.202528,143.29496 C 66.057008,143.25862 65.612687,143.15721 65.215154,143.06961 64.405031,142.8911 63.688987,141.75856 63.688987,140.65573 63.688987,140.21123 64.018192,139.62547 64.58857,139.05509 65.808871,137.83479 67.328352,137.78542 68.471838,138.92891 69.307258,139.76432 69.402346,140.27169 68.960857,141.53815 68.592086,142.596 67.130681,143.52679 66.202528,143.29496 Z M 67.856174,141.78314 C 69.052911,140.68779 68.330527,138.94926 66.678662,138.94926 64.9898,138.94926 63.826395,140.94131 64.945758,141.91643 65.922425,142.76725 66.826199,142.72586 67.856174,141.78314 Z M 102.95181,114.4323 C 103.64103,111.37456 103.99563,104.80854 103.65535,101.40486 103.00214,94.870906 100.74657,88.986173 97.205514,84.577381 96.092484,83.191602 92.795437,79.947173 92.500215,79.947173 92.102033,79.947173 91.774635,80.765211 91.123606,83.386756 89.968279,88.039007 89.76305,89.687499 89.756623,94.366965 89.750011,99.180648 90.010769,101.15944 91.133819,104.81801 92.70305,109.93011 95.151684,114.01412 98.981046,117.90619 L 101.33248,120.29613 101.92857,118.31176 C 102.25642,117.22035 102.71688,115.4746 102.95181,114.4323 Z M 137.41455,108.73986 C 138.41169,108.13198 140.35862,107.12675 141.74107,106.50601 151.03487,102.33297 159.49754,102.63218 166.6827,107.38785 167.73517,108.08445 168.7637,108.76003 168.96832,108.88914 169.28355,109.08803 169.31235,108.68398 169.15692,106.24334 168.46728,95.413839 165.13608,83.97153 159.86824,74.33771 154.62304,64.74528 148.13311,57.176739 138.56347,49.492123 136.42824,47.777492 130.96059,44.293695 127.65182,42.53961 113.98465,35.294179 98.389938,32.288607 83.00357,33.934544 64.77702,35.884306 48.256883,43.939425 35.214552,57.236178 26.482515,66.138555 19.577508,77.92206 16.247083,89.604465 14.843058,94.52948 14.837645,94.590305 15.964541,92.779465 19.850323,86.535295 26.021013,80.433104 31.012945,77.89811 33.177131,76.799097 36.800438,75.707135 39.236126,75.419879 44.923829,74.749089 50.276474,76.221958 55.948757,80.018634 L 58.089583,81.451572 58.263531,78.913435 C 58.947648,68.931203 62.273709,61.17345 68.550224,54.920595 74.839171,48.655355 81.78264,45.769756 90.607116,45.75409 L 94.11607,45.747861 V 45.120433 44.493005 L 108.33742,44.495004 C 116.37685,44.496134 123.255,44.610017 124.16041,44.756989 130.7937,45.833741 136.48897,51.619247 139.71038,60.553325 140.59615,63.009884 141.54719,66.945876 141.36789,67.413132 141.27811,67.647077 140.80183,67.776339 140.02958,67.776339 H 138.83065 V 68.861131 C 138.83065,69.742037 138.66158,70.114997 137.93107,70.845506 137.10715,71.669426 136.89745,71.745089 135.43783,71.745089 134.10935,71.745089 133.70871,71.631112 133.03012,71.060112 132.58239,70.683372 132.21607,70.459825 132.21607,70.563341 132.21607,70.666857 132.06724,70.629992 131.88534,70.481421 131.15493,69.884841 120.19796,66.44245 111.38013,64.039221 109.25278,63.459427 108.89074,63.234541 109.48924,62.864651 110.62655,62.161759 127.18888,63.528546 131.63112,64.691885 132.46402,64.910005 133.74935,65.010052 134.80612,64.939016 136.19917,64.845378 136.6957,64.914376 137.11086,65.259289 137.4019,65.501084 137.4728,65.612159 137.26842,65.506122 137.02199,65.378272 136.9613,65.417679 137.08826,65.623107 137.19356,65.793485 137.38163,65.869902 137.50619,65.792919 137.92177,65.536075 139.09524,66.262967 139.09524,66.777238 139.09524,67.185863 139.25721,67.265082 139.95513,67.197791 140.70225,67.125755 140.80357,67.028129 140.72763,66.453422 140.52907,64.950645 139.22004,60.86633 138.18365,58.515922 135.40608,52.216701 131.49796,48.009138 126.58741,46.031175 L 124.41086,45.154464 H 109.4619 94.512945 V 46.000169 C 94.512945,46.465307 94.393883,46.95858 94.248362,47.096331 94.102841,47.234082 93.126423,47.538218 92.078546,47.772189 79.218904,50.643497 69.957701,57.5729 67.017159,66.523582 65.475707,71.215587 65.982186,76.653806 68.370831,81.05838 69.530693,83.197129 72.067695,85.573783 73.91354,86.250773 76.114077,87.05785 77.509627,87.214531 78.969968,86.818468 83.151012,85.68452 86.150977,82.736529 89.466589,76.503716 L 91.205653,73.234556 V 69.447114 C 91.205653,67.36402 91.235419,65.656783 91.271799,65.653251 91.308179,65.649719 91.982962,65.574561 92.771315,65.486238 93.865158,65.363686 94.272529,65.417597 94.491106,65.713833 94.648639,65.927336 95.610966,66.293302 96.629612,66.527093 99.288375,67.13731 104.38365,68.199633 107.60982,68.816371 112.06521,69.668102 135.13765,74.338585 136.99957,74.765649 L 138.69836,75.155299 137.03768,73.582486 C 135.89615,72.501361 135.52653,72.009673 135.85533,72.009673 136.11842,72.009673 137.0243,72.707572 137.86838,73.560562 139.10575,74.81098 139.31781,75.144176 138.96294,75.280354 138.22346,75.56412 137.3455,75.475646 134.25689,74.806117 131.13048,74.128395 123.55955,72.593947 121.76503,72.274314 121.18295,72.170637 117.37295,71.39894 113.29836,70.559436 109.22378,69.719931 105.59237,68.978045 105.22857,68.910801 101.68068,68.255018 95.295257,66.914845 94.773607,66.716514 94.411962,66.579018 94.11607,66.344509 94.11607,66.195388 94.11607,66.046266 93.580289,65.924256 92.925445,65.924256 H 91.73482 L 91.734283,69.959152 C 91.733934,72.56843 91.887749,74.835396 92.169626,76.375298 L 92.605506,78.756548 94.902877,80.921474 C 100.95187,86.62174 104.00898,93.843375 104.40289,103.3628 L 104.56711,107.33155 105.18178,105.21488 C 107.99382,95.531438 110.07056,91.016623 113.45638,87.225995 115.45122,84.992653 116.9678,83.757416 119.25149,82.50595 123.20982,80.336772 130.5723,79.315988 134.23509,80.428524 137.28055,81.353555 138.87375,83.082956 139.62695,86.281353 140.59497,90.39196 138.64409,102.55527 136.09075,108.32883 135.72194,109.16277 135.461,109.84509 135.51088,109.84509 135.56076,109.84509 136.41741,109.34774 137.41455,108.73986 Z M 85.517112,61.010258 C 83.630847,60.029231 82.738987,58.535202 82.738987,56.356404 82.738987,52.956635 85.595762,50.806856 89.212071,51.48528 90.361905,51.70099 91.949267,53.03964 92.435691,54.203812 92.902225,55.320391 92.893499,57.82096 92.4199,58.727499 91.918737,59.686799 90.711817,60.800176 89.799366,61.144923 88.70881,61.556964 86.43053,61.485317 85.517112,61.010258 Z M 90.042749,60.12969 C 91.035307,59.524443 91.8913,58.19801 92.133843,56.889364 92.337893,55.78842 91.651516,53.948648 90.732414,53.132953 89.325466,51.884298 86.747977,51.800619 85.132217,52.951142 84.040705,53.728366 83.191411,55.691159 83.403482,56.946393 83.609754,58.16731 84.702264,59.670143 85.781695,60.217815 86.904256,60.78737 89.036525,60.74327 90.042749,60.12969 Z M 86.231487,55.023422 C 85.407384,54.199319 86.086707,52.430506 87.227315,52.430506 88.567755,52.430506 89.210581,53.595797 88.550512,54.829149 88.236552,55.415789 86.748512,55.540447 86.231487,55.023422 Z M 87.981023,53.948021 C 88.086324,53.401238 87.322525,53.0328 86.919403,53.435922 86.516282,53.839044 86.884719,54.602843 87.431502,54.497542 87.684933,54.448737 87.932218,54.201452 87.981023,53.948021 Z M 136.55063,70.963148 C 137.73057,70.514539 138.64859,68.386064 138.03924,67.511756 137.79751,67.164914 137.72824,67.173253 137.48975,67.577902 137.18575,68.093702 136.15604,68.185737 135.37368,67.767031 134.74231,67.429134 134.69827,66.27903 135.29159,65.623419 135.69975,65.172403 135.67695,65.161335 134.83629,65.402434 133.57931,65.762931 132.73044,66.71749 132.56412,67.957491 132.24252,70.355199 134.22275,71.848208 136.55063,70.963148 Z M 131.75361,68.714157 C 131.65267,67.818588 131.75506,67.307648 132.17971,66.587926 132.79621,65.543034 132.82845,65.57939 130.89315,65.137091 127.13918,64.279145 109.9847,62.667436 109.52284,63.12929 109.44082,63.211313 109.62414,63.278422 109.93021,63.278422 110.92252,63.278422 117.1291,64.889171 121.76503,66.34983 127.34149,68.106822 131.31354,69.452509 131.54138,69.661953 131.67963,69.789033 131.81383,69.893006 131.83961,69.893006 131.86539,69.893006 131.82669,69.362524 131.75361,68.714157 Z M 136.92238,66.682112 C 137.0191,66.179843 136.41768,65.881404 135.92384,66.186617 135.4436,66.483413 135.81446,67.306344 136.37942,67.197542 136.63285,67.148737 136.87718,66.916793 136.92238,66.682112 Z M 136.64233,65.235236 C 136.55441,65.147317 136.32621,65.137919 136.13521,65.21435 135.92414,65.29881 135.98684,65.361506 136.29506,65.3742 136.57398,65.385688 136.73025,65.323154 136.64233,65.235236 Z"
       id="path17475"
       inkscape:connector-curvature="0" />
    <path
       style="fill:none;stroke:#000000;stroke-width:0.26458332px;stroke-linecap:butt;stroke-linejoin:miter;stroke-opacity:1"
       d="M 94.345901,44.720151 94.570888,66.208949"
       id="path17477"
       inkscape:connector-curvature="0"
       sodipodi:nodetypes="cc" />
    <path
       style="fill:none;stroke:#000000;stroke-width:0.26458332px;stroke-linecap:butt;stroke-linejoin:miter;stroke-opacity:1"
       d="M 130.9404,64.818675 C 119.14439,62.787052 106.61832,62.52576 94.491572,62.431265"
       id="path17479"
       inkscape:connector-curvature="0"
       sodipodi:nodetypes="cc" />
    <path
       style="fill:none;stroke:#000000;stroke-width:0.26458332px;stroke-linecap:butt;stroke-linejoin:miter;stroke-opacity:1"
       d="M 131.42067,69.984132 C 109.4962,62.363831 109.42348,62.822771 94.491572,62.431265"
       id="path17481"
       inkscape:connector-curvature="0"
       sodipodi:nodetypes="cc" />
  </g>
</svg>
