<?xml version="1.0" encoding="UTF-8" standalone="no"?>
<!-- Created with Inkscape (http://www.inkscape.org/) -->

<svg
   xmlns:dc="http://purl.org/dc/elements/1.1/"
   xmlns:cc="http://creativecommons.org/ns#"
   xmlns:rdf="http://www.w3.org/1999/02/22-rdf-syntax-ns#"
   xmlns:svg="http://www.w3.org/2000/svg"
   xmlns="http://www.w3.org/2000/svg"
   xmlns:sodipodi="http://sodipodi.sourceforge.net/DTD/sodipodi-0.dtd"
   xmlns:inkscape="http://www.inkscape.org/namespaces/inkscape"
   width="158.6794mm"
   height="35.91515mm"
   viewBox="0 0 158.6794 35.915149"
   version="1.1"
   id="svg8"
   inkscape:version="0.92.4 (5da689c313, 2019-01-14)"
   sodipodi:docname="spritz.svg">
  <defs
     id="defs2" />
  <sodipodi:namedview
     id="base"
     pagecolor="#ffffff"
     bordercolor="#666666"
     borderopacity="1.0"
     inkscape:pageopacity="0.0"
     inkscape:pageshadow="2"
     inkscape:zoom="2.8"
     inkscape:cx="216.8504"
     inkscape:cy="70.198156"
     inkscape:document-units="mm"
     inkscape:current-layer="layer1"
     showgrid="false"
     inkscape:window-width="3347"
     inkscape:window-height="1417"
     inkscape:window-x="-8"
     inkscape:window-y="-8"
     inkscape:window-maximized="1" />
  <metadata
     id="metadata5">
    <rdf:RDF>
      <cc:Work
         rdf:about="">
        <dc:format>image/svg+xml</dc:format>
        <dc:type
           rdf:resource="http://purl.org/dc/dcmitype/StillImage" />
        <dc:title></dc:title>
      </cc:Work>
    </rdf:RDF>
  </metadata>
  <g
     inkscape:label="Layer 1"
     inkscape:groupmode="layer"
     id="layer1"
     transform="translate(-124.67545,-232.27586)">
    <path
       style="fill:#000000;stroke-width:0.26458332"
       d="M 136.84628,268.08259 C 134.36665,267.83827 132.98866,267.43921 130.77474,266.3243 127.17479,264.51139 124.86381,261.30657 124.72926,257.94052 L 124.67545,256.59435 125.78157,256.51389 126.88769,256.43342 127.06766,257.70451 C 127.74947,262.51989 132.49096,265.71307 138.96295,265.71542 143.92153,265.71723 147.59845,263.52083 148.36407,260.09969 148.80065,258.14887 148.52954,256.92063 147.38201,255.65045 146.06277,254.19021 143.90132,253.24529 138.41393,251.7299 132.52936,250.10482 131.0142,249.54164 129.14343,248.28409 126.58043,246.56122 125.43237,244.22264 125.67146,241.21169 126.09777,235.84284 130.88835,232.26617 137.64004,232.27588 144.40398,232.28561 149.29113,235.81631 150.17994,241.3353 150.52313,243.46635 150.39756,243.76206 149.14941,243.76206 148.07214,243.76206 147.82649,243.47202 147.82649,242.20005 147.82649,240.01144 145.92524,237.27888 143.56449,236.07451 139.18502,233.84027 133.51698,234.29846 130.27019,237.14918 127.76009,239.35307 127.30046,243.04646 129.27143,245.17472 130.77408,246.79729 132.58063,247.54891 139.62441,249.48213 146.15471,251.27442 148.95872,252.83002 150.39211,255.4558 151.12456,256.79754 151.04133,260.68118 150.24504,262.3189 148.17167,266.58317 143.22492,268.7111 136.84628,268.08259 Z M 258.82638,267.37786 C 256.06543,267.33386 253.69624,267.18764 253.56152,267.05292 253.41132,266.90272 253.47254,266.57246 253.71979,266.19908 253.94156,265.86419 259.67532,258.86315 266.46149,250.64122 L 278.79997,235.69226 267.75125,235.55997 256.70253,235.42768 256.62118,234.3032 256.53982,233.17872 H 269.94733 283.35485 L 283.23967,233.78125 C 283.17632,234.11264 277.49589,241.20561 270.61648,249.54342 263.73708,257.88123 258.14933,264.74117 258.19926,264.78773 258.24919,264.83429 263.88597,264.97437 270.72545,265.09899 L 283.16087,265.3256 V 266.38393 267.44226 L 273.50358,267.45006 C 268.19207,267.45435 261.58733,267.42186 258.82638,267.37786 Z M 157.35149,250.25956 V 233.17872 H 163.40904 C 168.69466,233.17872 169.6823,233.24535 171.15933,233.70156 174.18238,234.63528 176.02917,236.21735 177.27176,238.93782 177.72958,239.94017 177.84405,240.69197 177.84512,242.70372 177.84631,244.91596 177.75482,245.41709 177.08186,246.88427 175.72249,249.84795 173.1712,251.57516 169.20128,252.21939 168.28645,252.36784 165.78366,252.49021 163.63953,252.49131 L 159.74111,252.49331 159.67078,259.83549 159.60045,267.17768 158.47597,267.25904 157.35149,267.3404 Z M 170.47122,249.47907 C 173.56599,248.51292 175.42098,246.0527 175.45521,242.86892 175.49139,239.5038 173.72607,237.12076 170.44674,236.10787 168.94924,235.64535 167.97632,235.55997 164.20279,235.55997 H 159.73274 V 242.87165 250.18333 L 164.4291,250.04127 C 167.62062,249.94472 169.55667,249.76458 170.47122,249.47907 Z M 183.28066,250.25956 V 233.17872 H 189.1782 C 195.58545,233.17872 197.23753,233.41871 199.34968,234.65625 202.72452,236.63364 204.37458,240.3947 203.66213,244.48589 203.11617,247.621 201.45559,249.86489 198.69099,251.20321 L 197.52488,251.76771 198.57901,252.85811 C 199.15879,253.45783 200.66017,255.53512 201.91541,257.4743 203.17065,259.41349 204.79146,261.59388 205.51721,262.31963 207.94462,264.74705 210.57034,265.36914 214.78081,264.51439 217.46969,263.96853 217.74488,264.07305 217.61313,265.59018 217.54823,266.33759 217.43608,266.41177 215.69212,266.86082 214.34885,267.20669 213.11225,267.31453 211.19088,267.25334 208.92741,267.18125 208.32074,267.06084 207.02376,266.42629 204.57073,265.22613 202.83745,263.40172 199.81143,258.83472 195.71292,252.64908 195.46315,252.49331 189.64334,252.49331 H 185.67028 L 185.59995,259.83549 185.52962,267.17768 184.40514,267.25904 183.28066,267.3404 Z M 196.56002,249.38469 C 199.76845,248.22467 201.31902,246.07377 201.31902,242.78317 201.31902,240.43438 200.73036,239.00157 199.21871,237.67097 197.29061,235.97379 195.50935,235.55997 190.13196,235.55997 H 185.66191 V 242.86884 250.1777 L 190.35826,250.05333 C 194.21758,249.95114 195.32293,249.83196 196.56002,249.38469 Z M 233.81608,251.45019 V 235.55997 H 226.82626 C 222.98186,235.55997 219.64811,235.4877 219.41793,235.39937 219.13547,235.29098 218.99941,234.90392 218.99941,234.20875 V 233.17872 H 234.88962 250.77984 L 250.69848,234.3032 250.61712,235.42768 243.4093,235.49808 236.20149,235.56847 236.13326,251.37308 236.06503,267.17768 234.94056,267.25904 233.81608,267.3404 Z M 210.53274,247.59851 V 233.1483 L 211.65722,233.22966 212.7817,233.31101 V 247.59851 261.88601 L 211.65722,261.96737 210.53274,262.04873 Z"
       id="path8461"
       inkscape:connector-curvature="0" />
  </g>
</svg>
