<?xml version="1.0" encoding="UTF-8"?>
<!-- Created with Inkscape (http://www.inkscape.org/) -->
<svg width="52.423mm" height="22.228mm" version="1.1" viewBox="0 0 52.423 22.228" xmlns="http://www.w3.org/2000/svg">
 <g transform="translate(-23.68 -114.76)" fill="#000001" stroke-width=".26458">
  <g aria-label="IGNIS LASER">
   <path d="m27.698 122.73h-3.5333v-0.78824h1.3395v-6.2012h-1.3395v-0.78824h3.5333v0.78824h-1.2898v6.2012h1.2898z"/>
   <path d="m35.244 122.17q-0.9536 0.70005-2.1112 0.70005-1.5158 0-2.2986-1.0253-0.78273-1.0308-0.78273-3.0096 0-1.9127 0.75516-2.9766 0.76068-1.0638 2.3261-1.0638 0.56224 0 1.1135 0.14331 0.55122 0.14332 0.88746 0.38034l-0.29766 0.71107q-0.77721-0.44097-1.7033-0.44097-1.0694 0-1.5985 0.78272-0.52366 0.78273-0.52366 2.4639 0 3.2412 2.1222 3.2412 0.79926 0 1.2072-0.33625v-1.9182h-1.4001v-0.78272h2.3041z"/>
   <path d="m41.853 122.73h-1.0032l-2.7892-6.1406v6.1406h-0.90399v-7.7777h1.0087l2.8002 6.0854v-6.0854h0.88746z"/>
   <path d="m48.004 122.73h-3.5333v-0.78824h1.3395v-6.2012h-1.3395v-0.78824h3.5333v0.78824h-1.2898v6.2012h1.2898z"/>
   <path d="m54.702 115.81q-0.69453-0.23702-1.3174-0.23702-0.70556 0-1.152 0.32521-0.44097 0.31971-0.44097 0.91502 0 0.70556 1.1631 1.2402 0.8599 0.39687 1.1355 0.55121 0.28112 0.15434 0.56775 0.42444 0.28663 0.2701 0.45751 0.63941 0.17639 0.3638 0.17639 0.82131 0 1.1355-0.76619 1.7639-0.76068 0.62288-1.797 0.62288-1.0032 0-1.7584-0.39688l0.18741-0.77721q0.88746 0.40239 1.5489 0.40239 0.7717 0 1.2347-0.39688 0.46853-0.40239 0.46853-1.1024 0-0.51814-0.30317-0.87644-0.30317-0.3638-1.119-0.73862-0.83785-0.38586-1.0859-0.52366-0.24254-0.14332-0.48507-0.39136-0.24254-0.24805-0.37483-0.55673-0.13229-0.30868-0.13229-0.67248 0-0.96463 0.69453-1.5048t1.7584-0.54019q0.77722 0 1.5434 0.23702z"/>
   <path d="m28.227 136.84h-4.2333v-7.7776h0.90399v6.9894h3.3293z"/>
   <path d="m35.834 136.84h-0.94809l-0.8599-2.723h-2.5521l-0.87092 2.723h-0.93707l2.5411-7.7776h1.0859zm-2.0671-3.5112-1.0197-3.2191-1.0142 3.2191z"/>
   <path d="m41.164 129.92q-0.69453-0.23703-1.3174-0.23703-0.70556 0-1.152 0.32522-0.44097 0.31971-0.44097 0.91502 0 0.70555 1.1631 1.2402 0.8599 0.39688 1.1355 0.55122 0.28112 0.15434 0.56775 0.42444 0.28663 0.27009 0.45751 0.63941 0.17639 0.3638 0.17639 0.82131 0 1.1355-0.76619 1.7639-0.76068 0.62287-1.797 0.62287-1.0032 0-1.7584-0.39687l0.18741-0.77722q0.88746 0.40239 1.5489 0.40239 0.7717 0 1.2347-0.39687 0.46853-0.40239 0.46853-1.1024 0-0.51814-0.30317-0.87643-0.30317-0.3638-1.119-0.73863-0.83785-0.38585-1.0859-0.52365-0.24254-0.14332-0.48507-0.39137-0.24253-0.24804-0.37483-0.55673-0.13229-0.30868-0.13229-0.67248 0-0.96463 0.69453-1.5048t1.7584-0.54019q0.77722 0 1.5434 0.23702z"/>
   <path d="m48.363 136.84h-4.0625v-7.7776h4.0294v0.78824h-3.1254v2.4088h3.0041v0.78824h-3.0041v3.0041h3.1585z"/>
   <path d="m56.129 136.84h-1.13l-2.282-3.5333h-1.0032v3.5333h-0.90399v-7.7776h2.1994q1.1079 0 1.7474 0.54019 0.64492 0.53468 0.64492 1.4938 0 0.71106-0.46853 1.2678-0.46853 0.55122-1.2898 0.74966zm-4.4152-4.3215h1.141q0.71658 0 1.1631-0.38585 0.44648-0.39136 0.44648-0.98116 0-1.3009-1.5875-1.3009h-1.1631z"/>
  </g>
  <g transform="rotate(135 59.94 112.83)" aria-label="-">
   <g fill="#000001">
    <path transform="matrix(-.18709 -.18709 .18709 -.18709 22.543 234.99)" d="m246.27 433.73c-0.79167 1.2e-4 -1.582 0.79025-1.582 2.373v35.068l-22.389-22.389c-2.2391-2.2391-4.4767 2e-3 -2.2383 2.2402l21.287 21.285h4.1484c4.6774 0 4.676 5.4395 0 5.4395h-4.2207l-21.217 21.217c-2.2357 2.2357 3e-3 4.4779 2.2402 2.2402l22.389-22.389v35.256c0 3.1617 3.166 3.1645 3.166 0v-35.254l22.389 22.387c2.2357 2.2357 4.4759-3e-3 2.2383-2.2402l-22.295-22.295h35.066c3.1666 0 3.1656-3.166 0-3.166h-35.254l22.482-22.482c2.2391-2.2391-2e-3 -4.4767-2.2402-2.2383l-22.387 22.387v-35.066c0-1.5833-0.79232-2.3732-1.584-2.373z" fill="#000001" stroke-width="1"/>
   </g>
  </g>
  <g transform="translate(-4.994)" aria-label="-">
   <path d="m69.95 126.1h-40.975v-0.83785h40.975c0.83727 0 0.83654 0.83785 0 0.83785z" fill="#000001"/>
  </g>
 </g>
</svg>
